<?xml version="1.0" encoding="UTF-8"?>
<svg width="364px" height="56px" viewBox="0 0 364 56" version="1.1" xmlns="http://www.w3.org/2000/svg" xmlns:xlink="http://www.w3.org/1999/xlink">
    <!-- Generator: Sketch 55.2 (78181) - https://sketchapp.com -->
    <title>americanairlines-01</title>
    <desc>Created with Sketch.</desc>
    <defs>
        <linearGradient x1="49.9526846%" y1="1.84882622%" x2="49.9526846%" y2="98.7531791%" id="linearGradient-1">
            <stop stop-color="#00D9FF" offset="0%"></stop>
            <stop stop-color="#0E518A" offset="100%"></stop>
        </linearGradient>
        <linearGradient x1="0.120977011%" y1="49.9688811%" x2="99.9856322%" y2="49.9688811%" id="linearGradient-2">
            <stop stop-color="#F12E1F" offset="0%"></stop>
            <stop stop-color="#9F1E1C" offset="100%"></stop>
        </linearGradient>
        <linearGradient x1="136.00254%" y1="-18.0987991%" x2="11.2092063%" y2="71.9105898%" id="linearGradient-3">
            <stop stop-color="#F12E1F" offset="0%"></stop>
            <stop stop-color="#9F1E1C" offset="100%"></stop>
        </linearGradient>
        <linearGradient x1="23.2220198%" y1="50.1559904%" x2="97.433403%" y2="49.2219746%" id="linearGradient-4">
            <stop stop-color="#E6EAEF" offset="0%"></stop>
            <stop stop-color="#95AAB1" offset="100%"></stop>
        </linearGradient>
    </defs>
    <g id="Home" stroke="none" stroke-width="1" fill="none" fill-rule="evenodd">
        <g id="Homepage" transform="translate(-335.000000, -3645.000000)" fill-rule="nonzero">
            <g id="americanairlines-01" transform="translate(335.000000, 3645.000000)">
                <g id="Group" transform="translate(301.000000, 0.000000)">
                    <path d="M0.393103448,0.292173913 C6.53534483,0.292173913 10.5155172,-0.633043478 14.987069,4.52869565 L29.6793103,22.4973913 L18.7706897,22.4973913 C16.3137931,22.4973913 13.512931,21.8156522 11.2034483,17.9686957 L0.393103448,0.292173913 Z" id="Path" fill="url(#linearGradient-1)"></path>
                    <path d="M33.7086207,27.7078261 L56.9017241,55.5617391 L40.637069,55.5617391 C35.0353448,55.5617391 31.7922414,52.2504348 29.6793103,48.6956522 L22.7017241,36.96 L24.7163793,30.7756522 L33.7086207,27.7078261 Z" id="Path" fill="url(#linearGradient-2)"></path>
                    <path d="M24.4706897,39.9304348 C25.5025862,35.4017391 33.462931,31.6521739 37.5905172,32.2852174 L33.4137931,27.2208696 L26.5836207,28.6817391 L22.112069,35.84 L24.4706897,39.9304348 Z" id="Path" fill="url(#linearGradient-3)"></path>
                    <path d="M24.3232759,39.7356522 L18.9672414,30.7756522 C17.3948276,28 18.8198276,24.6886957 24.5198276,24.0556522 C30.2198276,23.4226087 40.1456897,22.4973913 42.9465517,28.2434783 C35.2318966,27.4643478 23.7336207,29.8017391 24.3232759,39.7356522 Z" id="Path" fill="url(#linearGradient-4)"></path>
                </g>
                <g id="Group" transform="translate(0.000000, 15.000000)" fill="#394C75">
                    <g>
                        <g transform="translate(26.308321, 0.000000)">
                            <path d="M25.2365001,29.58 L25.2365001,18.5057143 C25.2365001,14.8628571 23.921084,12.9685714 21.4364093,12.9685714 C19.7799595,12.9685714 18.3183862,14.0857143 17.6850377,15.7857143 C17.5388804,16.2228571 17.4414421,16.9028571 17.4414421,17.5342857 L17.4414421,29.5314286 L12.7644074,29.5314286 L12.7644074,17.9714286 C12.7644074,14.8142857 11.4002722,12.9685714 9.06175485,12.9685714 C7.01555214,12.9685714 5.70013612,14.5714286 5.16422588,15.98 C4.96934943,16.5628571 4.92063032,17.1457143 4.92063032,17.7285714 L4.92063032,29.58 L0.243595561,29.58 L0.243595561,15.4942857 C0.243595561,13.2114286 0.146157336,11.2685714 0.0974382242,9.61714286 L4.14112453,9.61714286 L4.38472009,12.6285714 L4.77447299,12.6285714 L4.8231921,12.5314286 C5.74885523,10.9771429 7.60018149,9.13142857 10.9618002,9.13142857 C13.4951941,9.13142857 15.5901159,10.54 16.4670599,12.7742857 L16.515779,12.8714286 L16.8080937,12.8714286 L16.8568128,12.7742857 C17.5388804,11.7057143 18.3183862,10.88 19.2927684,10.2971429 C20.5107462,9.47142857 21.7774431,9.13142857 23.3851738,9.13142857 C24.9441854,9.13142857 30.0109731,9.76285714 30.0109731,17.7771429 L30.0109731,29.58 L25.2365001,29.58 Z" id="Path"></path>
                            <path d="M43.5548862,29.9685714 C37.1726825,29.9685714 33.2264345,26.0828571 33.2264345,19.8657143 C33.2264345,14.6685714 36.2957385,9.08285714 43.018976,9.08285714 C49.4011797,9.08285714 51.6422588,14.3285714 51.6422588,18.7971429 C51.6422588,19.7685714 51.5448206,20.4485714 51.4961015,20.7885714 L37.806031,20.7885714 L37.806031,20.9828571 C37.9521883,24.9657143 41.2163688,26.4228571 44.2369538,26.4228571 C46.7703476,26.4228571 48.4267974,25.9857143 49.7422135,25.5485714 L50.424281,28.7542857 C49.108865,29.3371429 46.8190667,29.9685714 43.5548862,29.9685714 L43.5548862,29.9685714 Z M42.7266613,12.2885714 C39.2676044,12.2885714 38.0009074,15.4942857 37.8547501,17.3885714 L37.8547501,17.5828571 L47.1601005,17.5828571 L47.1601005,17.4371429 C47.1601005,16.8542857 47.1113814,14.8142857 45.7959654,13.4542857 C44.9677405,12.6771429 43.9446391,12.2885714 42.7266613,12.2885714 L42.7266613,12.2885714 Z" id="Shape"></path>
                            <path d="M55.2474731,29.58 L55.2474731,15.98 C55.2474731,13.1142857 55.198754,11.2685714 55.1013158,9.61714286 L59.1937212,9.61714286 L59.3885977,13.4542857 L59.7783506,13.4542857 L59.8270697,13.3571429 C60.7040137,10.8314286 62.8476546,9.18 65.2836102,9.18 C65.7220822,9.18 65.9656778,9.22857143 67.1836556,9.27714286 L67.1836556,13.7457143 C65.9169587,13.6971429 65.4784867,13.6485714 64.9425764,13.6485714 C62.5066208,13.6485714 60.6552946,15.2028571 60.1681034,17.68 C60.0706652,18.1657143 60.0219461,18.7 60.0219461,19.2342857 L60.0219461,29.6285714 L55.2474731,29.6285714 L55.2474731,29.58 Z" id="Path"></path>
                            <path d="M88.230312,29.9685714 C81.9455466,29.9685714 77.9018603,25.9371429 77.9018603,19.7685714 C77.9018603,13.4057143 82.3840186,9.13142857 89.0585369,9.13142857 C90.7149867,9.13142857 92.566313,9.47142857 93.8330099,10.0057143 L93.004785,13.5514286 C91.9329645,13.0657143 90.7149867,12.8228571 89.2046943,12.8228571 C87.353368,12.8228571 85.7943564,13.4542857 84.6738168,14.5714286 C83.455839,15.7857143 82.8224906,17.5828571 82.8224906,19.5742857 C82.8224906,23.6057143 85.4046035,26.2771429 89.2046943,26.2771429 C90.6175485,26.2771429 91.8842454,26.0342857 93.1509423,25.5485714 L93.7842908,28.9971429 C92.7611894,29.4828571 90.7149867,29.9685714 88.230312,29.9685714 L88.230312,29.9685714 Z" id="Path"></path>
                            <path d="M102.261416,30.0171429 C98.1690109,30.0171429 96.02537,27.0542857 96.02537,24.14 C96.02537,19.2828571 100.215214,16.6114286 107.766676,16.6114286 L108.10771,16.6114286 L108.10771,16.1257143 C108.10771,14.7171429 107.5718,12.4342857 103.820428,12.4342857 C101.969102,12.4342857 99.9228989,12.9685714 98.4613256,13.8428571 L97.5356624,10.8314286 C98.3638873,10.3457143 100.848562,9.13142857 104.697372,9.13142857 C111.518048,9.13142857 112.930902,13.6971429 112.930902,17.5342857 L112.930902,24.82 C112.930902,26.86 113.02834,28.4142857 113.223217,29.5314286 L108.935935,29.5314286 L108.546182,27.2971429 L108.205148,27.2971429 L108.156429,27.3457143 C106.889732,29.0457143 104.746091,30.0171429 102.261416,30.0171429 L102.261416,30.0171429 Z M107.815395,19.6228571 C103.187079,19.6228571 100.799843,20.9342857 100.799843,23.6057143 C100.799843,25.5 101.969102,26.7142857 103.917866,26.7142857 C106.158945,26.7142857 107.620519,25.2571429 108.156429,23.8 C108.302586,23.4114286 108.302586,23.0228571 108.302586,22.6342857 L108.302586,19.6714286 L107.815395,19.6228571 Z" id="Shape"></path>
                            <path d="M130.177468,29.58 L130.177468,18.2628571 C130.177468,14.8628571 128.715894,12.9685714 126.133781,12.9685714 C123.843983,12.9685714 122.479848,14.6685714 121.943938,16.0771429 C121.79778,16.4657143 121.700342,17.0971429 121.700342,17.7771429 L121.700342,29.58 L116.87715,29.58 L116.87715,15.4942857 C116.87715,13.2114286 116.779712,11.2685714 116.730993,9.61714286 L120.872117,9.61714286 L121.115713,12.6771429 L121.505466,12.6771429 L121.554185,12.58 C122.528567,10.9285714 124.672208,9.18 127.936388,9.18 C131.346726,9.18 135.00066,11.4142857 135.00066,17.7285714 L135.00066,29.6285714 L130.177468,29.6285714 L130.177468,29.58 Z" id="Path"></path>
                            <path d="M179.042737,29.58 L179.042737,15.98 C179.042737,13.1142857 178.994018,11.2685714 178.89658,9.61714286 L182.988985,9.61714286 L183.183862,13.4542857 L183.573614,13.4542857 L183.622334,13.3571429 C184.499278,10.8314286 186.642918,9.18 189.078874,9.18 C189.517346,9.18 189.760942,9.22857143 190.978919,9.27714286 L190.978919,13.7457143 C189.712223,13.6971429 189.273751,13.6485714 188.73784,13.6485714 C186.301885,13.6485714 184.450558,15.2028571 183.963367,17.68 C183.865929,18.1657143 183.81721,18.7 183.81721,19.2342857 L183.81721,29.6285714 L179.042737,29.6285714 L179.042737,29.58 Z" id="Path"></path>
                            <rect id="Rectangle" x="193.073841" y="0.291428571" width="4.8231921" height="29.2885714"></rect>
                            <path d="M226.202837,29.58 L226.202837,18.2628571 C226.202837,14.8628571 224.741264,12.9685714 222.159151,12.9685714 C219.869353,12.9685714 218.505218,14.6685714 217.969308,16.0771429 C217.82315,16.4657143 217.725712,17.0971429 217.725712,17.7771429 L217.725712,29.58 L212.90252,29.58 L212.90252,15.4942857 C212.90252,13.2114286 212.805082,11.2685714 212.756363,9.61714286 L216.897487,9.61714286 L217.141083,12.6771429 L217.530836,12.6771429 L217.579555,12.58 C218.553937,10.9285714 220.697578,9.18 223.961758,9.18 C227.372096,9.18 231.02603,11.4142857 231.02603,17.7285714 L231.02603,29.6285714 L226.202837,29.6285714 L226.202837,29.58 Z" id="Path"></path>
                            <path d="M245.008415,29.9685714 C238.626211,29.9685714 234.679963,26.0828571 234.679963,19.8657143 C234.679963,14.6685714 237.749267,9.08285714 244.472505,9.08285714 C250.854708,9.08285714 253.095787,14.3285714 253.095787,18.7971429 C253.095787,19.7685714 252.998349,20.4485714 252.94963,20.7885714 L239.25956,20.7885714 L239.25956,20.9828571 C239.405717,24.9657143 242.669897,26.4228571 245.690482,26.4228571 C248.223876,26.4228571 249.880326,25.9857143 251.195742,25.5485714 L251.87781,28.7542857 C250.562394,29.3371429 248.272595,29.9685714 245.008415,29.9685714 L245.008415,29.9685714 Z M244.18019,12.2885714 C240.721133,12.2885714 239.454436,15.4942857 239.308279,17.3885714 L239.308279,17.5828571 L248.613629,17.5828571 L248.613629,17.4371429 C248.613629,16.8542857 248.56491,14.8142857 247.249494,13.4542857 C246.421269,12.6771429 245.398168,12.2885714 244.18019,12.2885714 L244.18019,12.2885714 Z" id="Shape"></path>
                            <path d="M261.475475,29.9685714 C259.234396,29.9685714 257.090755,29.4828571 255.483024,28.6571429 L256.457406,25.2571429 C257.675384,25.9857143 259.770306,26.6657143 261.524194,26.6657143 C263.716554,26.6657143 264.934532,25.7914286 264.934532,24.1885714 C264.934532,22.6342857 263.813992,21.9057143 261.475475,21.08 C257.87026,19.8657143 255.970215,17.8742857 255.970215,15.3 C255.970215,11.6571429 259.088238,9.13142857 263.521677,9.13142857 C265.470442,9.13142857 267.419206,9.56857143 268.783341,10.2485714 L267.857678,13.5028571 C266.883296,12.9685714 265.324285,12.4342857 263.667835,12.4342857 C261.816508,12.4342857 260.64725,13.3571429 260.64725,14.7657143 C260.64725,16.1742857 261.71907,16.8057143 264.301183,17.7771429 C268.003836,19.04 269.611566,20.8371429 269.611566,23.8 C269.611566,27.5885714 266.493543,29.9685714 261.475475,29.9685714 L261.475475,29.9685714 Z" id="Path"></path>
                        </g>
                        <path d="M19.0978919,29.58 L24.3108369,29.58 L15.2978012,1.79714286 L8.96431663,1.79714286 L0,29.58 L4.96934943,29.58 L6.72323747,23.46 L17.2465657,23.46 L19.0978919,29.58 Z M7.74633882,19.9628571 L10.3771709,10.9285714 C10.6694856,9.86 10.9618002,8.69428571 11.2541149,7.52857143 C11.4002722,6.89714286 11.5464296,6.26571429 11.741306,5.68285714 L11.7900251,5.53714286 L12.1310589,5.53714286 L12.4233736,6.60571429 C12.7644074,7.96571429 13.1541603,9.52 13.5926323,10.88 L16.2721834,19.9142857 L7.74633882,19.9142857 L7.74633882,19.9628571 Z" id="Shape"></path>
                        <path d="M187.714739,29.58 L192.927684,29.58 L183.865929,1.79714286 L177.532445,1.79714286 L168.616847,29.58 L173.586196,29.58 L175.340084,23.46 L185.863413,23.46 L187.714739,29.58 Z M176.363186,19.9628571 L178.994018,10.9285714 C179.286333,9.86 179.578647,8.69428571 179.870962,7.52857143 C180.017119,6.89714286 180.163277,6.26571429 180.358153,5.68285714 L180.406872,5.53714286 L180.747906,5.53714286 L181.040221,6.60571429 C181.381254,7.96571429 181.771007,9.52 182.209479,10.88 L184.88903,19.9142857 L176.363186,19.9142857 L176.363186,19.9628571 Z" id="Shape"></path>
                    </g>
                    <g transform="translate(95.976651, 1.942857)">
                        <polygon id="Path" points="0.146157336 27.6371429 0.146157336 7.62571429 4.96934943 7.62571429 4.96934943 27.5885714 0.146157336 27.5885714"></polygon>
                        <rect id="Rectangle" x="0.389752897" y="0" width="4.33600098" height="4.08"></rect>
                    </g>
                    <g transform="translate(194.876448, 1.942857)">
                        <polygon id="Path" points="0.389752897 27.6371429 0.389752897 7.62571429 5.212945 7.62571429 5.212945 27.5885714 0.389752897 27.5885714"></polygon>
                        <rect id="Rectangle" x="0.633348457" y="0" width="4.33600098" height="4.08"></rect>
                    </g>
                    <g transform="translate(229.467018, 1.942857)">
                        <polygon id="Path" points="0.194876448 27.6371429 0.194876448 7.62571429 5.01806855 7.62571429 5.01806855 27.5885714 0.194876448 27.5885714"></polygon>
                        <rect id="Rectangle" x="0.487191121" y="0" width="4.33600098" height="4.08"></rect>
                    </g>
                </g>
                <g id="Group" transform="translate(359.000000, 52.000000)" fill="#394C75">
                    <polygon id="Path" points="0.958333333 0.514285714 0.208333333 0.514285714 0.208333333 0.171428571 2 0.171428571 2 0.514285714 1.25 0.514285714 1.25 3.48571429 0.916666667 3.48571429 0.916666667 0.514285714"></polygon>
                    <path d="M4.33333333,2 C4.33333333,1.54285714 4.29166667,0.971428571 4.29166667,0.571428571 L4.29166667,0.571428571 C4.20833333,0.971428571 4.125,1.37142857 4,1.82857143 L3.58333333,3.42857143 L3.33333333,3.42857143 L2.95833333,1.82857143 C2.83333333,1.37142857 2.75,0.914285714 2.66666667,0.514285714 L2.66666667,0.514285714 C2.66666667,0.914285714 2.625,1.48571429 2.625,2 L2.54166667,3.42857143 L2.25,3.42857143 L2.41666667,0.114285714 L2.83333333,0.114285714 L3.25,1.71428571 C3.33333333,2.11428571 3.41666667,2.45714286 3.5,2.85714286 L3.5,2.85714286 C3.58333333,2.51428571 3.66666667,2.17142857 3.75,1.71428571 L4.16666667,0.114285714 L4.58333333,0.114285714 L4.75,3.42857143 L4.45833333,3.42857143 L4.33333333,2 Z" id="Path"></path>
                </g>
            </g>
        </g>
    </g>
</svg>