<?xml version="1.0" encoding="UTF-8"?>
<svg width="23px" height="44px" viewBox="0 0 23 44" version="1.1" xmlns="http://www.w3.org/2000/svg" xmlns:xlink="http://www.w3.org/1999/xlink">
    <!-- Generator: Sketch 55.2 (78181) - https://sketchapp.com -->
    <title>Shape</title>
    <desc>Created with Sketch.</desc>
    <g id="Home" stroke="none" stroke-width="1" fill="none" fill-rule="evenodd">
        <g id="Homepage" transform="translate(-909.000000, -3825.000000)" fill="#FFFFFF" fill-rule="nonzero">
            <path d="M922.457605,3858.20093 C924.500057,3858.20093 926.483479,3857.54038 928.159943,3856.28195 C930.238994,3854.72097 931.599055,3852.42712 931.988655,3849.82228 C932.070117,3849.27865 931.704129,3848.76997 931.171674,3848.6868 C928.21307,3848.22514 925.357179,3849.19307 923.280489,3851.08432 C923.390285,3850.03081 923.433968,3848.97127 923.409175,3847.91294 C925.696013,3847.25119 927.639295,3845.77459 928.922616,3843.70855 C930.305108,3841.4834 930.75492,3838.84119 930.19177,3836.2701 C930.073709,3835.7325 929.55188,3835.39499 929.026509,3835.51553 C926.508272,3836.0917 924.359565,3837.6334 922.977073,3839.85975 C922.720881,3840.27199 922.497746,3840.69749 922.306487,3841.13505 C922.064462,3840.35275 921.784658,3839.5801 921.463533,3838.82191 C925.413848,3835.57821 926.25326,3829.69109 923.276947,3825.4192 C923.12701,3825.20344 922.899152,3825.05758 922.644141,3825.01419 C922.38913,3824.96959 922.127035,3825.03107 921.915706,3825.18535 C919.813042,3826.71379 918.418744,3828.98594 917.990183,3831.58476 C917.919347,3832.01267 917.879206,3832.44058 917.862678,3832.86609 C917.415227,3832.32125 916.942984,3831.79209 916.441225,3831.2798 C916.059889,3830.89046 915.442431,3830.89046 915.061094,3831.2798 C914.679758,3831.66914 914.679758,3832.29955 915.061094,3832.68889 C915.765917,3833.40851 916.410529,3834.16549 916.998472,3834.95261 C914.678577,3833.83401 912.070613,3833.69901 909.650367,3834.57412 C909.142705,3834.75734 908.875888,3835.32749 909.056521,3835.84581 C910.459083,3839.88868 914.194528,3842.41879 918.174358,3842.41879 C918.965366,3842.41879 919.765818,3842.31874 920.559187,3842.11021 C921.154213,3844.16178 921.456449,3846.28326 921.464713,3848.40715 C920.294731,3846.08317 918.233389,3844.23289 915.588826,3843.44337 C915.07172,3843.28908 914.52982,3843.59163 914.378703,3844.12079 C913.653809,3846.6497 913.938336,3849.31602 915.177974,3851.62674 C916.286566,3853.69398 918.04213,3855.25376 920.173128,3856.0903 C919.116484,3859.09171 917.415227,3861.90629 915.063455,3864.30742 C914.012714,3865.38022 912.855718,3866.34453 911.627885,3867.17263 C911.178074,3867.47639 911.05411,3868.09355 911.351623,3868.5528 C911.53934,3868.8433 911.84984,3869 912.167423,3869 C912.351598,3869 912.539315,3868.94696 912.7046,3868.83486 C913.977296,3867.97663 915.176794,3866.98339 916.27594,3865.88407 C917.952404,3867.09187 919.898046,3867.68372 921.834244,3867.68372 C924.633466,3867.68372 927.411437,3866.45181 929.3193,3864.07358 C929.483405,3863.86866 929.561325,3863.60589 929.535351,3863.34311 C929.509378,3863.08034 929.383053,3862.83806 929.182349,3862.67051 C927.185941,3861.00105 924.671245,3860.22598 922.103422,3860.48635 C921.415128,3860.55626 920.745723,3860.7009 920.102291,3860.91064 C920.621759,3860.01504 921.081016,3859.09051 921.478881,3858.14669 C922.078798,3856.72356 920.929738,3858.20093 922.457605,3858.20093 Z M928.971784,3838 C929.114421,3839.69835 928.71457,3841.38951 927.810813,3842.85277 C926.905888,3844.31724 925.584743,3845.4087 924.027429,3846 C923.737479,3842.50975 925.770639,3839.21979 928.971784,3838 Z M930,3850.00113 C928.960239,3853.59244 925.66871,3856.05547 922,3855.99905 C923.038504,3852.40773 926.327518,3849.93958 930,3850.00113 Z M911,3836.15026 C912.756067,3835.83346 914.575256,3836.01853 916.22149,3836.69677 C917.867723,3837.375 919.180671,3838.47673 920,3839.8528 C916.388133,3840.49838 912.689157,3838.97643 911,3836.15026 Z M920.798848,3837 C920.089778,3835.54641 919.841282,3833.89177 920.099418,3832.24522 C920.356482,3830.59866 921.093401,3829.12197 922.205206,3828 C923.657621,3830.98922 923.079225,3834.6902 920.798848,3837 Z M922.35,3862.03632 C923.99771,3861.87776 925.615649,3862.24145 927,3863.06752 C924.550763,3865.27295 920.85,3865.62999 918,3863.93572 C919.19084,3862.86128 920.703435,3862.19599 922.35,3862.03632 Z M919.926878,3855 C918.608639,3854.24913 917.522971,3852.97604 916.81815,3851.32881 C916.113329,3849.68158 915.858416,3847.8252 916.074737,3846 C918.782305,3847.5459 920.367645,3851.24827 919.926878,3855 Z" id="Shape"></path>
        </g>
    </g>
</svg>