<?xml version="1.0" encoding="UTF-8"?>
<svg width="14px" height="8px" viewBox="0 0 14 8" version="1.1" xmlns="http://www.w3.org/2000/svg" xmlns:xlink="http://www.w3.org/1999/xlink">
    <!-- Generator: Sketch 55.2 (78181) - https://sketchapp.com -->
    <title>angle-arrow-down copy 3</title>
    <desc>Created with Sketch.</desc>
    <g id="Home" stroke="none" stroke-width="1" fill="none" fill-rule="evenodd">
        <g id="Homepage" transform="translate(-560.000000, -75.000000)" fill="#FFFFFF" fill-rule="nonzero">
            <g id="angle-arrow-down-copy-3" transform="translate(560.000000, 75.000000)">
                <path d="M13.8601125,0.82467427 L13.1587588,0.137501881 C13.065304,0.0457376704 12.9576491,0 12.8359416,0 C12.7145289,0 12.6069231,0.0457376704 12.5134683,0.137501881 L7.0000737,5.53950591 L1.48692481,0.137646315 C1.39342082,0.0458821051 1.28581506,0.000144434749 1.16425495,0.000144434749 C1.04264571,0.000144434749 0.935039957,0.0458821051 0.841585097,0.137646315 L0.140329696,0.824866849 C0.0466782953,0.91643848 0,1.02187585 0,1.14103451 C0,1.26009689 0.0468257004,1.36553426 0.140329696,1.45710589 L6.67740384,7.86259441 C6.77085871,7.95421418 6.87851359,8 7.0000737,8 C7.12163381,8 7.22909216,7.95421418 7.32249789,7.86259441 L13.8601125,1.45710589 C13.9535674,1.36548611 14,1.26004875 14,1.14103451 C14,1.02187585 13.9535674,0.91643848 13.8601125,0.82467427 Z" id="Path"></path>
            </g>
        </g>
    </g>
</svg>