<?xml version="1.0" encoding="UTF-8"?>
<svg width="37px" height="37px" viewBox="0 0 37 37" version="1.1" xmlns="http://www.w3.org/2000/svg" xmlns:xlink="http://www.w3.org/1999/xlink">
    <!-- Generator: Sketch 55.2 (78181) - https://sketchapp.com -->
    <title>001-facebook</title>
    <desc>Created with Sketch.</desc>
    <g id="Home" stroke="none" stroke-width="1" fill="none" fill-rule="evenodd" opacity="0.899623326">
        <g id="Homepage" transform="translate(-587.000000, -4244.000000)" fill-rule="nonzero">
            <g id="001-facebook" transform="translate(587.000000, 4244.000000)">
                <path d="M22,36.9519532 C21.6678831,36.9867188 21.3345498,37.0187501 21,37.0480469 C21.3345498,37.0187501 21.6678831,36.9867188 22,36.9519532 Z" id="Path" fill="#000000"></path>
                <path d="M22.1105156,36.9732422 C22.0368385,36.9919922 21.9631614,37.0091797 21.8894844,37.0267578 C21.9631614,37.0091797 22.0368385,36.9919922 22.1105156,36.9732422 Z" id="Path" fill="#000000"></path>
                <path d="M21,36.9628907 C20.6683964,36.9910157 20.3347171,37.0160157 20,37.0371094 C20.3347171,37.0160157 20.6683964,36.9910157 21,36.9628907 Z" id="Path" fill="#000000"></path>
                <path d="M21.1304169,36.9775391 C21.0437546,36.9935548 20.9565277,37.0083985 20.8695831,37.022461 C20.9565277,37.0083985 21.0437546,36.9935548 21.1304169,36.9775391 Z" id="Path" fill="#000000"></path>
                <path d="M22.0976715,36.9716797 C22.0327454,36.9908203 21.9675369,37.009961 21.9023285,37.0283203 C21.9675369,37.009961 22.0327454,36.9908203 22.0976715,36.9716797 Z" id="Path" fill="#000000"></path>
                <path d="M23.0787582,36.9697266 C23.0262528,36.9904297 22.9737473,37.009961 22.9212418,37.0302735 C22.9737473,37.009961 23.0262528,36.9904297 23.0787582,36.9697266 Z" id="Path" fill="#000000"></path>
                <path d="M23.0858154,36.9691407 C23.0287933,36.9898438 22.9714889,37.0109376 22.9141846,37.0308594 C22.9714889,37.0109376 23.0287933,36.9902344 23.0858154,36.9691407 Z" id="Path" fill="#000000"></path>
                <path d="M22.0911789,36.9716797 C22.0307693,36.991211 21.9697952,37.0095703 21.9088211,37.0283203 C21.9697952,37.0095703 22.0307693,36.991211 22.0911789,36.9716797 Z" id="Path" fill="#000000"></path>
                <path d="M20.146225,36.9847657 C20.0488358,36.9960938 19.9514465,37.0062501 19.853775,37.0152344 C19.9514465,37.0062501 20.0488358,36.9960938 20.146225,36.9847657 Z" id="Path" fill="#000000"></path>
                <path d="M37,18.5 C37,8.28429415 28.7157059,0 18.5,0 C8.28429415,0 0,8.28429415 0,18.5 C0,28.7157059 8.28429415,37 18.5,37 C18.6086807,37 18.7167969,36.9977417 18.8251953,36.9957657 L18.8251953,22.5942993 L14.8505859,22.5942993 L14.8505859,17.9622421 L18.8251953,17.9622421 L18.8251953,14.5536194 C18.8251953,10.6004639 21.238472,8.44886776 24.7648086,8.44886776 C26.4534531,8.44886776 27.9049759,8.57476807 28.328125,8.63094332 L28.328125,12.7625046 L25.8964996,12.7625046 C23.9780732,12.7625046 23.6065826,13.6742935 23.6065826,15.0120544 L23.6065826,17.9622421 L28.1937561,17.9622421 L27.595871,22.5942993 L23.6065826,22.5942993 L23.6065826,36.2852478 C31.3392868,34.0684433 37,26.9443512 37,18.5 Z" id="Path" fill="#FFFFFF"></path>
                <path d="M20,36.9800782 C19.667965,36.9972656 19.3344694,37.0109375 19,37.0199219 C19.3344694,37.0109375 19.667965,36.9972656 20,36.9800782 Z" id="Path" fill="#000000"></path>
                <path d="M20,36.9947266 C19.6672795,36.999414 19.3336398,37.0029297 19,37.0052734 C19.3336398,37.0029297 19.6672795,36.999414 20,36.9947266 Z" id="Path" fill="#000000"></path>
            </g>
        </g>
    </g>
</svg>