<?xml version="1.0" encoding="UTF-8"?>
<svg width="37px" height="37px" viewBox="0 0 37 37" version="1.1" xmlns="http://www.w3.org/2000/svg" xmlns:xlink="http://www.w3.org/1999/xlink">
    <!-- Generator: Sketch 55.2 (78181) - https://sketchapp.com -->
    <title>glassdoor-logo</title>
    <desc>Created with Sketch.</desc>
    <g id="Home" stroke="none" stroke-width="1" fill="none" fill-rule="evenodd" opacity="0.899623326">
        <g id="Homepage" transform="translate(-813.000000, -4245.000000)" fill="#FFFFFF" fill-rule="nonzero">
            <g id="glassdoor-logo" transform="translate(813.000000, 4245.000000)">
                <path d="M17.6856463,0 C18.2280554,0 18.7712046,0 19.3136137,0 C19.4801104,0.0310793784 19.6451271,0.0732585348 19.8131037,0.09249815 C20.3621728,0.154656907 20.9171617,0.179076418 21.4610508,0.270094598 C25.0736585,0.875402492 28.2592948,2.38571229 30.9528409,4.87206256 C34.3197736,7.9800004 36.2933141,11.8175636 36.8335033,16.3788324 C36.8853023,16.8146837 36.9445011,17.250535 37,17.6856463 C37,18.2280554 37,18.7712046 37,19.3136137 C36.9689206,19.4801104 36.9267415,19.6458671 36.9075018,19.8138437 C36.8453431,20.3629127 36.8209236,20.9179016 36.7299054,21.4617908 C36.1253375,25.0743985 34.6142877,28.2600348 32.1279374,30.9535809 C29.0199996,34.3205136 25.1824364,36.2940541 20.6211676,36.8335033 C20.1853163,36.8853023 19.750205,36.9445011 19.3143537,37 C18.7719446,37 18.2287954,37 17.6863863,37 C17.5198896,36.9689206 17.3548729,36.9267415 17.1868963,36.9075018 C16.6378272,36.8453431 16.0828383,36.8209236 15.5389492,36.7299054 C11.9263415,36.1245975 8.74070519,34.6150277 6.04715906,32.1279374 C2.6802264,29.0199996 0.705945881,25.1831763 0.16649667,20.6211676 C0.114697706,20.1853163 0.05549889,19.749465 0,19.3143537 C0,18.7719446 0,18.2287954 0,17.6863863 C0.0310793784,17.5198896 0.0732585348,17.3541329 0.09249815,17.1861563 C0.154656907,16.6370873 0.179076418,16.0820984 0.270094598,15.5382092 C0.874662507,11.9256015 2.38571229,8.7399652 4.87206256,6.04641907 C7.9800004,2.67948641 11.8168237,0.705205896 16.3788324,0.16649667 C16.8146837,0.114697706 17.249795,0.05549889 17.6856463,0 Z M10.2650747,16.8724026 C10.2650747,19.0420392 10.2650747,21.2116758 10.2650747,23.3813124 C10.2650747,23.9274215 10.2665547,23.9274215 10.8267235,23.9281614 C11.5911282,23.9289014 12.3555329,23.9289014 13.1199376,23.9281614 C13.6416272,23.9274215 13.6423672,23.9274215 13.6423672,23.3916722 C13.6423672,19.2373953 13.6423672,15.0831183 13.6423672,10.9288414 C13.6423672,10.3864323 13.6423672,10.3864323 14.1744165,10.3864323 C18.2176956,10.3864323 22.2609748,10.3864323 26.3042539,10.3856923 C26.7341853,10.3856923 26.7778444,10.3316734 26.7053259,9.91580168 C26.3886122,8.09025819 25.0921582,7.00321994 23.2296154,7.00247995 C20.0735785,7.00247995 16.9182816,7.00173997 13.7622448,7.00247995 C11.6821464,7.00247995 10.2643347,8.42473151 10.2643347,10.5107498 C10.2643347,12.6322874 10.2650747,14.752345 10.2650747,16.8724026 Z M26.7341853,20.151277 C26.7341853,17.9446411 26.7282654,15.7380052 26.74012,13.5313694 C26.7415852,13.1806164 26.6320674,13.0540789 26.2724346,13.0636987 C25.4717706,13.0858983 24.6703666,13.0703586 23.8689626,13.0710986 C23.3583728,13.0718386 23.3576328,13.0725785 23.3576328,13.5809484 C23.3576328,17.7722246 23.351713,21.9635007 23.3665127,26.1547769 C23.3679926,26.5403092 23.2540349,26.6217076 22.8877422,26.6202276 C18.8200436,26.6076478 14.751605,26.6120878 10.6839063,26.6128277 C10.2687746,26.6128277 10.2251155,26.6646267 10.2894942,27.0568189 C10.5847483,28.8749625 11.900442,29.9945601 13.7444851,29.9953001 C16.9123618,29.9960401 20.0809784,29.9960401 23.248855,29.9953001 C25.3067539,29.9953001 26.7349253,28.5678686 26.7349253,26.5114498 C26.7349253,24.3921322 26.7341853,22.2720746 26.7341853,20.151277 Z" id="Shape"></path>
            </g>
        </g>
    </g>
</svg>