<?xml version="1.0" encoding="UTF-8"?>
<svg width="58px" height="36px" viewBox="0 0 58 36" version="1.1" xmlns="http://www.w3.org/2000/svg" xmlns:xlink="http://www.w3.org/1999/xlink">
    <!-- Generator: Sketch 55.2 (78181) - https://sketchapp.com -->
    <title>Group 2</title>
    <desc>Created with Sketch.</desc>
    <g id="Home" stroke="none" stroke-width="1" fill="none" fill-rule="evenodd">
        <g id="Homepage-Mobile-" transform="translate(-130.000000, -1257.000000)" fill="#FFFFFF" fill-rule="nonzero">
            <g id="Group-2" transform="translate(130.000000, 1257.000000)">
                <path d="M10.8206554,14.2505306 C13.9352086,14.2505306 16.8585091,12.1804206 17.9561327,8.87258396 C18.0965694,8.44850234 17.8886862,7.98201256 17.4913982,7.83210464 C15.5973507,7.11609708 13.5563991,7.22655555 11.7408853,8.14178285 C12.2010003,7.49777053 12.7054636,6.87841413 13.2570472,6.28963105 C13.5554752,5.97107672 13.5554752,5.45527513 13.2570472,5.1367208 C12.9586192,4.81816647 12.4754062,4.81816647 12.1769782,5.1367208 C11.7833859,5.55685747 11.4119678,5.99178768 11.0618,6.43953897 C10.9786467,4.01734258 9.88194702,1.66122403 7.89365916,0.151296233 C7.54995884,-0.11005639 7.07321323,-0.0242538306 6.82837295,0.342626078 C5.65775923,2.09911295 5.19672036,4.23727328 5.53302928,6.36359877 C5.84346828,8.33114022 6.80250304,10.0688886 8.24752266,11.3085877 C7.9962149,11.9289303 7.77724453,12.5611078 7.58783979,13.2011751 C7.43816384,12.8431714 7.26354191,12.4950299 7.06305005,12.1577371 C5.98113319,10.3371449 4.30051254,9.0747624 2.32885533,8.60334144 C2.13113526,8.5560021 1.92417593,8.59446531 1.75324969,8.7108412 C1.58232346,8.82623085 1.46128921,9.01065704 1.41694078,9.22171161 C0.537363617,13.4132159 2.90076527,17.586968 6.72489329,18.7467819 C6.70549085,19.6107249 6.7396761,20.4756542 6.82467725,21.3366385 C6.64728354,21.1689783 6.46249842,21.0082218 6.26939797,20.8563414 C4.64051716,19.5781791 2.64576181,19.0544877 0.648234688,19.3799456 C0.231544247,19.4479959 -0.0548726857,19.8641877 0.00887817995,20.3089802 C0.313773624,22.4402369 1.3781359,24.3170446 3.00516887,25.5942207 C4.3171432,26.6238514 5.86933819,27.1643089 7.46772946,27.1643089 C7.72365685,27.1643089 7.98050816,27.1495153 8.2382834,27.1209145 C8.55057025,27.8960962 8.91090123,28.6535257 9.31927634,29.389258 C6.95679861,28.5805442 4.26817515,29.0223781 2.20966893,30.8222594 C1.8835232,31.1072816 1.83547907,31.6211108 2.10249356,31.9692522 C3.38213051,33.6369778 5.19394859,34.6735122 7.20348674,34.8875254 C7.4584902,34.9151401 7.71349367,34.9279611 7.96664928,34.9279611 C9.52623567,34.9279611 11.0313105,34.4161045 12.3090995,33.4515654 C13.1692743,34.3510129 14.1070587,35.1636716 15.1030505,35.8648856 C15.2324001,35.9566056 15.3783804,36 15.5234367,36 C15.7710487,36 16.0149651,35.870803 16.1618693,35.6341063 C16.3937746,35.2583503 16.2976863,34.7524111 15.9456707,34.5048657 C14.9838641,33.8273214 14.079341,33.0383323 13.2570472,32.160582 C11.4165874,30.1959993 10.0852107,27.8931375 9.25829725,25.4374091 C12.8847052,23.9452335 14.9025587,19.6965275 13.792924,15.6440825 C13.6746616,15.212111 13.2505797,14.9645657 12.8459003,15.0898177 C10.9075044,15.6943805 9.30541746,17.069194 8.33529559,18.9607952 C8.30480604,19.0209556 8.27616435,19.0821023 8.24752266,19.1432489 C8.25491406,17.4084593 8.49051509,15.675642 8.95617358,13.9990403 C9.57520373,14.1676867 10.2016253,14.2505306 10.8206554,14.2505306 Z M6.97743454,17 C4.41710875,16.0852946 2.79002078,13.6181982 3.02192757,11 C4.26842658,11.4434118 5.32416354,12.2618798 6.04793716,13.360066 C6.77171077,14.4582521 7.09151772,15.7264278 6.97743454,17 Z M4.25895663,23.6432108 C3.16059082,22.7286687 2.37806411,21.4583527 2,20.0010684 C2.03299811,20 2.06599623,20 2.09899434,20 C4.81238215,20 7.23067253,22.0416938 8,24.998998 C6.66121936,25.0246394 5.35732244,24.5577528 4.25895663,23.6432108 Z M7.38244275,33.9636865 C6.10178117,33.8051439 4.92531807,33.1399301 4,32.0645011 C6.21666667,30.3704233 9.09503817,30.7263127 11,32.9326051 C9.92150127,33.7585789 8.66310433,34.1222291 7.38244275,33.9636865 Z M9.81824275,20.4474596 C10.5230357,19.3493072 11.6086606,18.4997113 12.9268469,18 C13.3675964,20.5011547 11.7833355,22.9693995 9.07485881,24 C8.85854628,22.7831986 9.11243423,21.545612 9.81824275,20.4474596 Z M11.5190069,9.69651971 C12.6173376,9.01939357 13.8301305,8.83323832 15,9.15002884 C13.8738954,11.9761051 11.4070697,13.4990946 9,12.8524501 C9.54621967,11.4764252 10.4206761,10.3747345 11.5190069,9.69651971 Z M7.09883257,6.69816408 C6.84169217,5.41751188 7.09026122,4.13056875 7.79846873,3 C10.0795183,4.7965079 10.6580842,7.67595327 9.20416956,10 C8.09310877,9.1273591 7.35597296,7.97971498 7.09883257,6.69816408 Z" id="Shape"></path>
                <path d="M50.8206554,14.2505306 C53.9352086,14.2505306 56.8585091,12.1804206 57.9561327,8.87258396 C58.0965694,8.44850234 57.8886862,7.98201256 57.4913982,7.83210464 C55.5973507,7.11609708 53.5563991,7.22655555 51.7408853,8.14178285 C52.2010003,7.49777053 52.7054636,6.87841413 53.2570472,6.28963105 C53.5554752,5.97107672 53.5554752,5.45527513 53.2570472,5.1367208 C52.9586192,4.81816647 52.4754062,4.81816647 52.1769782,5.1367208 C51.7833859,5.55685747 51.4119678,5.99178768 51.0618,6.43953897 C50.9786467,4.01734258 49.881947,1.66122403 47.8936592,0.151296233 C47.5499588,-0.11005639 47.0732132,-0.0242538306 46.828373,0.342626078 C45.6577592,2.09911295 45.1967204,4.23727328 45.5330293,6.36359877 C45.8434683,8.33114022 46.802503,10.0688886 48.2475227,11.3085877 C47.9962149,11.9289303 47.7772445,12.5611078 47.5878398,13.2011751 C47.4381638,12.8431714 47.2635419,12.4950299 47.0630501,12.1577371 C45.9811332,10.3371449 44.3005125,9.0747624 42.3288553,8.60334144 C42.1311353,8.5560021 41.9241759,8.59446531 41.7532497,8.7108412 C41.5823235,8.82623085 41.4612892,9.01065704 41.4169408,9.22171161 C40.5373636,13.4132159 42.9007653,17.586968 46.7248933,18.7467819 C46.7054908,19.6107249 46.7396761,20.4756542 46.8246773,21.3366385 C46.6472835,21.1689783 46.4624984,21.0082218 46.269398,20.8563414 C44.6405172,19.5781791 42.6457618,19.0544877 40.6482347,19.3799456 C40.2315442,19.4479959 39.9451273,19.8641877 40.0088782,20.3089802 C40.3137736,22.4402369 41.3781359,24.3170446 43.0051689,25.5942207 C44.3171432,26.6238514 45.8693382,27.1643089 47.4677295,27.1643089 C47.7236568,27.1643089 47.9805082,27.1495153 48.2382834,27.1209145 C48.5505703,27.8960962 48.9109012,28.6535257 49.3192763,29.389258 C46.9567986,28.5805442 44.2681751,29.0223781 42.2096689,30.8222594 C41.8835232,31.1072816 41.8354791,31.6211108 42.1024936,31.9692522 C43.3821305,33.6369778 45.1939486,34.6735122 47.2034867,34.8875254 C47.4584902,34.9151401 47.7134937,34.9279611 47.9666493,34.9279611 C49.5262357,34.9279611 51.0313105,34.4161045 52.3090995,33.4515654 C53.1692743,34.3510129 54.1070587,35.1636716 55.1030505,35.8648856 C55.2324001,35.9566056 55.3783804,36 55.5234367,36 C55.7710487,36 56.0149651,35.870803 56.1618693,35.6341063 C56.3937746,35.2583503 56.2976863,34.7524111 55.9456707,34.5048657 C54.9838641,33.8273214 54.079341,33.0383323 53.2570472,32.160582 C51.4165874,30.1959993 50.0852107,27.8931375 49.2582973,25.4374091 C52.8847052,23.9452335 54.9025587,19.6965275 53.792924,15.6440825 C53.6746616,15.212111 53.2505797,14.9645657 52.8459003,15.0898177 C50.9075044,15.6943805 49.3054175,17.069194 48.3352956,18.9607952 C48.304806,19.0209556 48.2761644,19.0821023 48.2475227,19.1432489 C48.2549141,17.4084593 48.4905151,15.675642 48.9561736,13.9990403 C49.5752037,14.1676867 50.2016253,14.2505306 50.8206554,14.2505306 Z M46.9774345,17 C44.4171088,16.0852946 42.7900208,13.6181982 43.0219276,11 C44.2684266,11.4434118 45.3241635,12.2618798 46.0479372,13.360066 C46.7717108,14.4582521 47.0915177,15.7264278 46.9774345,17 Z M44.2589566,23.6432108 C43.1605908,22.7286687 42.3780641,21.4583527 42,20.0010684 C42.0329981,20 42.0659962,20 42.0989943,20 C44.8123821,20 47.2306725,22.0416938 48,24.998998 C46.6612194,25.0246394 45.3573224,24.5577528 44.2589566,23.6432108 Z M47.3824427,33.9636865 C46.1017812,33.8051439 44.9253181,33.1399301 44,32.0645011 C46.2166667,30.3704233 49.0950382,30.7263127 51,32.9326051 C49.9215013,33.7585789 48.6631043,34.1222291 47.3824427,33.9636865 Z M49.8182427,20.4474596 C50.5230357,19.3493072 51.6086606,18.4997113 52.9268469,18 C53.3675964,20.5011547 51.7833355,22.9693995 49.0748588,24 C48.8585463,22.7831986 49.1124342,21.545612 49.8182427,20.4474596 Z M51.5190069,9.69651971 C52.6173376,9.01939357 53.8301305,8.83323832 55,9.15002884 C53.8738954,11.9761051 51.4070697,13.4990946 49,12.8524501 C49.5462197,11.4764252 50.4206761,10.3747345 51.5190069,9.69651971 Z M47.0988326,6.69816408 C46.8416922,5.41751188 47.0902612,4.13056875 47.7984687,3 C50.0795183,4.7965079 50.6580842,7.67595327 49.2041696,10 C48.0931088,9.1273591 47.355973,7.97971498 47.0988326,6.69816408 Z" id="Shape-Copy" transform="translate(49.000000, 18.000000) scale(-1, 1) translate(-49.000000, -18.000000) "></path>
            </g>
        </g>
    </g>
</svg>