<?xml version="1.0" encoding="UTF-8"?>
<svg width="37px" height="37px" viewBox="0 0 37 37" version="1.1" xmlns="http://www.w3.org/2000/svg" xmlns:xlink="http://www.w3.org/1999/xlink">
    <!-- Generator: Sketch 55.2 (78181) - https://sketchapp.com -->
    <title>003-instagram</title>
    <desc>Created with Sketch.</desc>
    <g id="Home" stroke="none" stroke-width="1" fill="none" fill-rule="evenodd" opacity="0.899623326">
        <g id="Homepage" transform="translate(-644.000000, -4245.000000)" fill="#FFFFFF" fill-rule="nonzero">
            <g id="003-instagram" transform="translate(644.000000, 4245.000000)">
                <path d="M21,18.5 C21,19.8807398 19.8807398,21 18.5,21 C17.1192602,21 16,19.8807398 16,18.5 C16,17.1192602 17.1192602,16 18.5,16 C19.8807398,16 21,17.1192602 21,18.5 Z" id="Path"></path>
                <path d="M26.6071504,13.244818 C26.4507884,12.8211108 26.2013354,12.4375962 25.877202,12.122798 C25.5624038,11.7986646 25.1791485,11.5492116 24.755182,11.3928496 C24.4113414,11.2593067 23.8948025,11.1003517 22.9434063,11.0570475 C21.9142181,11.010113 21.6056432,11 19.0001296,11 C16.3943568,11 16.0857819,11.0098537 15.056853,11.0567882 C14.1054568,11.1003517 13.5886586,11.2593067 13.2450773,11.3928496 C12.8211108,11.5492116 12.4375962,11.7986646 12.1230572,12.122798 C11.7989239,12.4375962 11.5494709,12.8208515 11.3928496,13.244818 C11.2593067,13.5886586 11.1003517,14.1054568 11.0570475,15.056853 C11.010113,16.0857819 11,16.3943568 11,19.0001296 C11,21.6056432 11.010113,21.9142181 11.0570475,22.9434063 C11.1003517,23.8948025 11.2593067,24.4113414 11.3928496,24.7551821 C11.5494709,25.1791485 11.7986646,25.5624038 12.122798,25.877202 C12.4375962,26.2013354 12.8208515,26.4507885 13.2448179,26.6071504 C13.5886586,26.7409526 14.1054568,26.8999076 15.056853,26.9432118 C16.0857819,26.9901464 16.3940976,27 18.9998704,27 C21.6059024,27 21.9144774,26.9901464 22.943147,26.9432118 C23.8945432,26.8999076 24.4113414,26.7409526 24.755182,26.6071504 C25.6062266,26.2788681 26.2788681,25.6062266 26.6071504,24.7551821 C26.7406933,24.4113414 26.8996483,23.8948025 26.9432118,22.9434063 C26.9901463,21.9142181 27,21.6056432 27,19.0001296 C27,16.3943568 26.9901463,16.0857819 26.9432118,15.056853 C26.8999076,14.1054568 26.7409526,13.5886586 26.6071504,13.244818 L26.6071504,13.244818 Z M18.5790781,23.6315789 C15.7884891,23.6315789 13.5263158,21.3696085 13.5263158,18.5789474 C13.5263158,15.7882862 15.7884891,13.5263158 18.5790781,13.5263158 C21.3694056,13.5263158 23.6315789,15.7882862 23.6315789,18.5789474 C23.6315789,21.3696085 21.3694056,23.6315789 18.5790781,23.6315789 Z M24.0526316,15.2105263 C23.3550417,15.2105263 22.7894737,14.6449583 22.7894737,13.9473684 C22.7894737,13.2497785 23.3550417,12.6842105 24.0526316,12.6842105 C24.7502215,12.6842105 25.3157895,13.2497785 25.3157895,13.9473684 C25.3155098,14.6449583 24.7502215,15.2105263 24.0526316,15.2105263 Z" id="Shape"></path>
                <path d="M18.5,0 C8.28429415,0 0,8.28429415 0,18.5 C0,28.7157059 8.28429415,37 18.5,37 C28.7157059,37 37,28.7157059 37,18.5 C37,8.28429415 28.7157059,0 18.5,0 Z M29.0589676,22.8796921 C29.0075913,24.0105362 28.827774,24.7825928 28.5652466,25.4583892 C28.0133743,26.8853531 26.8853531,28.0133743 25.4583892,28.5652466 C24.782875,28.827774 24.0105362,29.007309 22.8799744,29.0589676 C21.7471543,29.1106262 21.3852615,29.1230469 18.5002823,29.1230469 C15.6150208,29.1230469 15.2534104,29.1106262 14.1203079,29.0589676 C12.9897461,29.007309 12.2174072,28.827774 11.541893,28.5652466 C10.8327866,28.2984848 10.1908645,27.8804169 9.66016386,27.3398361 C9.11986544,26.8094177 8.70179745,26.1672134 8.43503569,25.4583892 C8.17250826,24.782875 7.992691,24.0105362 7.9413147,22.8799744 C7.88909151,21.746872 7.87695313,21.3849792 7.87695313,18.5 C7.87695313,15.6150208 7.88909151,15.253128 7.94103243,14.1203079 C7.99240873,12.9894638 8.17194365,12.2174072 8.43447115,11.5416108 C8.70123291,10.8327866 9.11958309,10.1905823 9.66016386,9.66016386 C10.1905823,9.11958309 10.8327866,8.70151518 11.5416108,8.43475342 C12.2174072,8.17222599 12.9894638,7.992691 14.1203079,7.94103243 C15.253128,7.88937378 15.6150208,7.87695313 18.5,7.87695313 C21.3849792,7.87695313 21.746872,7.88937378 22.8796921,7.9413147 C24.0105362,7.992691 24.7825928,8.17222599 25.4583892,8.43447115 C26.1672134,8.70123291 26.8094177,9.11958309 27.3401184,9.66016386 C27.8804169,10.1908645 28.2987671,10.8327866 28.5652466,11.5416108 C28.8280564,12.2174072 29.0075913,12.9894638 29.0592499,14.1203079 C29.1109085,15.253128 29.1230469,15.6150208 29.1230469,18.5 C29.1230469,21.3849792 29.1109085,21.746872 29.0589676,22.8796921 L29.0589676,22.8796921 Z" id="Shape"></path>
            </g>
        </g>
    </g>
</svg>