<?xml version="1.0" encoding="UTF-8"?>
<svg width="31px" height="26px" viewBox="0 0 31 26" version="1.1" xmlns="http://www.w3.org/2000/svg" xmlns:xlink="http://www.w3.org/1999/xlink">
    <!-- Generator: Sketch 55.2 (78181) - https://sketchapp.com -->
    <title>left-arrow copy 2</title>
    <desc>Created with Sketch.</desc>
    <g id="Home" stroke="none" stroke-width="1" fill="none" fill-rule="evenodd">
        <g id="First-Officers---Inner-Page" transform="translate(-212.000000, -6117.000000)" fill="#002131" fill-rule="nonzero">
            <g id="left-arrow-copy-2" transform="translate(212.000000, 6117.000000)">
                <path d="M29.2574475,10.5452659 L29.3058378,10.5559547 L8.56205367,10.5559547 L15.0831417,3.95663792 C15.4024668,3.63444691 15.5776294,3.19798753 15.5776294,2.73989605 C15.5776294,2.28180457 15.4024668,1.84839913 15.0831417,1.52544463 L14.068459,0.500337696 C13.7493859,0.178146687 13.3242071,0 12.8708007,0 C12.4171423,0 11.9917115,0.176874211 11.6726384,0.499065219 L0.494242417,11.7856758 C0.173909153,12.1091393 -0.00125341003,12.5399998 0,12.9983458 C-0.00125341003,13.4592367 0.173909153,13.8903517 0.494242417,14.2133062 L11.6726384,25.5009348 C11.9917115,25.8228713 12.4168902,26 12.8708007,26 C13.3242071,26 13.7493859,25.8226168 14.068459,25.5009348 L15.0831417,24.4758278 C15.4024668,24.1541458 15.5776294,23.7245578 15.5776294,23.2664663 C15.5776294,22.8086293 15.4024668,22.4016914 15.0831417,22.0797549 L8.48846019,15.4435363 L29.2806345,15.4435363 C30.2149189,15.4435363 31,14.6304239 31,13.687519 L31,12.2376594 C31,11.2947545 30.1917319,10.5452659 29.2574475,10.5452659 Z" id="Path"></path>
            </g>
        </g>
    </g>
</svg>