<?xml version="1.0" encoding="UTF-8"?>
<svg width="37px" height="37px" viewBox="0 0 37 37" version="1.1" xmlns="http://www.w3.org/2000/svg" xmlns:xlink="http://www.w3.org/1999/xlink">
    <!-- Generator: Sketch 55.2 (78181) - https://sketchapp.com -->
    <title>004-linkedin</title>
    <desc>Created with Sketch.</desc>
    <g id="Home" stroke="none" stroke-width="1" fill="none" fill-rule="evenodd" opacity="0.899623326">
        <g id="Homepage" transform="translate(-756.000000, -4245.000000)" fill="#FFFFFF" fill-rule="nonzero">
            <g id="004-linkedin" transform="translate(756.000000, 4245.000000)">
                <path d="M18.5,0 C8.28429415,0 0,8.28429415 0,18.5 C0,28.7157059 8.28429415,37 18.5,37 C28.7157059,37 37,28.7157059 37,18.5 C37,8.28429415 28.7157059,0 18.5,0 Z M12.7377049,27.9016393 L8.49180328,27.9016393 L8.49180328,14.557377 L12.7377049,14.557377 L12.7377049,27.9016393 Z M10.9037084,12.7377049 L10.8756001,12.7377049 C9.42802462,12.7377049 8.49180328,11.6594132 8.49180328,10.3117678 C8.49180328,8.93370692 9.45667346,7.8852459 10.9323571,7.8852459 C12.408041,7.8852459 13.316154,8.93370692 13.3442623,10.3117678 C13.3442623,11.6594132 12.408041,12.7377049 10.9037084,12.7377049 Z M29.7213115,27.9016393 L25.1514079,27.9016393 L25.1514079,20.6094364 C25.1514079,18.7768052 24.4896468,17.5269484 22.8359596,17.5269484 C21.5734303,17.5269484 20.821468,18.370027 20.4910169,19.1838673 C20.3701761,19.4751126 20.3406817,19.8821747 20.3406817,20.2895207 L20.3406817,27.9016393 L15.7704918,27.9016393 C15.7704918,27.9016393 15.8303396,15.5495463 15.7704918,14.2707353 L20.3406817,14.2707353 L20.3406817,16.2007321 C20.9480359,15.2719264 22.0347446,13.9508197 24.4595797,13.9508197 C27.4665699,13.9508197 29.7213115,15.8989838 29.7213115,20.0857058 L29.7213115,27.9016393 Z" id="Shape"></path>
            </g>
        </g>
    </g>
</svg>