<?xml version="1.0" encoding="utf-8"?>
<!-- Generator: Adobe Illustrator 23.0.4, SVG Export Plug-In . SVG Version: 6.00 Build 0)  -->
<svg version="1.1" id="Layer_1" xmlns="http://www.w3.org/2000/svg" xmlns:xlink="http://www.w3.org/1999/xlink" x="0px" y="0px"
	 viewBox="0 0 1440 464" style="enable-background:new 0 0 1440 464;" xml:space="preserve">
<style type="text/css">
	.st0{filter:url(#Adobe_OpacityMaskFilter);}
	.st1{fill-rule:evenodd;clip-rule:evenodd;fill:#FFFFFF;}
	.st2{mask:url(#mask-2_1_);fill-rule:evenodd;clip-rule:evenodd;fill:url(#Fill-1_1_);}
</style>
<title>Group 10 Copy</title>
<desc>Created with Sketch.</desc>
<g id="Home">
	<g id="Homepage" transform="translate(0.000000, -1.000000)">
		<g id="Group-2" transform="translate(-136.000000, 0.000000)">
			<g id="Group-10-Copy">
				<g id="Group-3-Copy">
					<g id="Clip-2">
					</g>
					<defs>
						<filter id="Adobe_OpacityMaskFilter" filterUnits="userSpaceOnUse" x="15.5" y="0.3" width="1681" height="565.3">
							<feColorMatrix  type="matrix" values="1 0 0 0 0  0 1 0 0 0  0 0 1 0 0  0 0 0 1 0"/>
						</filter>
					</defs>
					<mask maskUnits="userSpaceOnUse" x="15.5" y="0.3" width="1681" height="565.3" id="mask-2_1_">
						<g class="st0">
							<polygon id="path-1_1_" class="st1" points="15.5,0.3 1696.5,0.3 1696.5,510.2 15.5,510.2 							"/>
						</g>
					</mask>
					
						<linearGradient id="Fill-1_1_" gradientUnits="userSpaceOnUse" x1="460.3228" y1="845.2137" x2="460.3228" y2="844.5075" gradientTransform="matrix(1647.8489 0 0 -565.2607 -757686.5 477831.8125)">
						<stop  offset="0" style="stop-color:#01117A"/>
						<stop  offset="0.459" style="stop-color:#007CBB"/>
						<stop  offset="1" style="stop-color:#FFFFFF;stop-opacity:0"/>
					</linearGradient>
					<path id="Fill-1" class="st2" d="M855.3,509.8C537.7,331.3,361.6,279.9,60,271.9c-24.6-0.7-44.5-23.3-44.5-51.4
						c0.5-71.9-0.2-109.8,0-174.6C15.7,20,34.8-0.5,57.4,0.3c296.1,10.1,472.1,61.5,785.7,233.8c4.3,2.3,9,3.5,13.7,3.5
						s9.4-1.2,13.6-3.5C1181.2,63.6,1356.2,11.7,1647.1,1c26.8-1,49.3,23.8,49.4,54.5c0.1,87.5-0.3,167.8-0.3,167.8
						c0,27.4-19.7,49.5-43.6,50c-299.9,7.1-472.9,59.4-794.1,236.5c-0.6,0.1-1,0.2-1.6,0.4C682.9,567.2,1014.3,599.2,855.3,509.8z"
						/>
				</g>
			</g>
		</g>
	</g>
</g>
</svg>
