<?xml version="1.0" encoding="UTF-8"?>
<svg width="91px" height="66px" viewBox="0 0 91 66" version="1.1" xmlns="http://www.w3.org/2000/svg" xmlns:xlink="http://www.w3.org/1999/xlink">
    <!-- Generator: Sketch 55.2 (78181) - https://sketchapp.com -->
    <title>Group 34</title>
    <desc>Created with Sketch.</desc>
    <defs>
        <polygon id="path-1" points="0.827742857 0.000942857143 5.15117143 0.000942857143 5.15117143 6 0.827742857 6"></polygon>
    </defs>
    <g id="Home" stroke="none" stroke-width="1" fill="none" fill-rule="evenodd">
        <g id="Homepage" transform="translate(-130.000000, -3940.000000)">
            <g id="Group-34" transform="translate(130.000000, 3940.000000)">
                <path d="M18.4045928,63.7951234 L16.986856,60.7834367 L15.5673062,63.7951234 L18.4045928,63.7951234 Z M14.0426046,65.5195498 L16.5453996,60.2951955 C16.6342348,60.1099408 16.7656746,60 16.986856,60 L17.0222088,60 C17.2325125,60 17.3739236,60.1099408 17.4527874,60.2951955 L19.9555824,65.5108931 C19.9818704,65.5706247 20,65.6294907 20,65.6805656 C20,65.8571635 19.8495241,66 19.6646019,66 C19.4969029,66 19.3826862,65.8900592 19.3210455,65.7558794 L18.6783502,64.4010965 L15.2944554,64.4010965 L14.6508536,65.7723272 C14.5892129,65.9151638 14.4749962,66 14.316362,66 C14.1405046,66 14,65.8658202 14,65.6961477 C14,65.6468042 14.0081583,65.5870726 14.0426046,65.5195498 L14.0426046,65.5195498 Z" id="Fill-1" fill="#FEFEFE"></path>
                <path d="M24.116,60.3381629 C24.116,60.1521298 24.291,60 24.495,60 C24.709,60 24.884,60.1521298 24.884,60.3381629 L24.884,65.6618371 C24.884,65.8478702 24.709,66 24.495,66 C24.291,66 24.116,65.8478702 24.116,65.6618371 L24.116,60.3381629 Z" id="Fill-3" fill="#FEFEFE"></path>
                <path d="M31.6541605,63.0380855 C32.6023403,63.0380855 33.2784175,62.5793083 33.2784175,61.8132205 L33.2784175,61.7957099 C33.2784175,61.0637677 32.6822065,60.62075 31.6634473,60.62075 L29.7132244,60.62075 L29.7132244,63.0380855 L31.6541605,63.0380855 Z M29,60.3405808 C29,60.1532176 29.1625186,60 29.3519688,60 L31.7163819,60 C32.4927563,60 33.115899,60.2215088 33.513373,60.5962352 C33.8198366,60.8851598 34,61.3027871 34,61.7703196 L34,61.7869546 C34,62.765796 33.2969911,63.3357654 32.3125929,63.5143733 L33.8829866,65.4212754 C33.9563522,65.4983219 34,65.5736174 34,65.6681745 C34,65.8467824 33.8198366,66 33.6396731,66 C33.4947994,66 33.3870728,65.9229535 33.3053492,65.8213921 L31.5269316,63.6422005 L29.7132244,63.6422005 L29.7132244,65.6594192 C29.7132244,65.8467824 29.5507058,66 29.3519688,66 C29.1625186,66 29,65.8467824 29,65.6594192 L29,60.3405808 Z" id="Fill-5" fill="#FEFEFE"></path>
                <path d="M38,60.3405808 C38,60.1532176 38.1515282,60 38.3271632,60 C38.5105467,60 38.6620749,60.1532176 38.6620749,60.3405808 L38.6620749,65.3783744 L41.6995265,65.3783744 C41.8665519,65.3783744 42,65.5237122 42,65.6935649 C42,65.864293 41.8665519,66 41.6995265,66 L38.3271632,66 C38.1515282,66 38,65.8467824 38,65.6594192 L38,60.3405808 Z" id="Fill-7" fill="#FEFEFE"></path>
                <path d="M46.116,60.3381629 C46.116,60.1521298 46.291,60 46.495,60 C46.709,60 46.884,60.1521298 46.884,60.3381629 L46.884,65.6618371 C46.884,65.8478702 46.709,66 46.495,66 C46.291,66 46.116,65.8478702 46.116,65.6618371 L46.116,60.3381629 Z" id="Fill-9" fill="#FEFEFE"></path>
                <path d="M51,60.3460368 C51,60.1686712 51.1529105,60.0165193 51.3301477,60.0165193 L51.4222415,60.0165193 C51.5742832,60.0165193 51.6681147,60.09303 51.7602085,60.2112737 L55.3492615,64.7906101 L55.3492615,60.328648 C55.3492615,60.1512824 55.4926151,60 55.6785404,60 C55.8557776,60 56,60.1512824 56,60.328648 L56,65.6704825 C56,65.8478481 55.872285,65.9826112 55.6950478,65.9826112 L55.6611642,65.9826112 C55.5178106,65.9826112 55.4170287,65.8982756 55.3153779,65.7800319 L51.6507385,61.0894073 L51.6507385,65.6704825 C51.6507385,65.8478481 51.5073849,66 51.3214596,66 C51.1442224,66 51,65.8478481 51,65.6704825 L51,60.3460368 Z" id="Fill-11" fill="#FEFEFE"></path>
                <path d="M61,65.6569665 L61,60.3430335 C61,60.154321 61.1757891,60 61.3795445,60 L65.6014782,60 C65.7962445,60 65.9510587,60.1366843 65.9510587,60.308642 C65.9510587,60.4797178 65.7962445,60.6164021 65.6014782,60.6164021 L61.7680783,60.6164021 L61.7680783,62.664903 L65.165002,62.664903 C65.3587695,62.664903 65.5155813,62.8104056 65.5155813,62.9744268 C65.5155813,63.1455026 65.3587695,63.2830688 65.165002,63.2830688 L61.7680783,63.2830688 L61.7680783,65.3818342 L65.6504195,65.3818342 C65.8451858,65.3818342 66,65.5202822 66,65.691358 C66,65.8624339 65.8451858,66 65.6504195,66 L61.3795445,66 C61.1757891,66 61,65.845679 61,65.6569665" id="Fill-13" fill="#FEFEFE"></path>
                <g id="Group-17" transform="translate(68.000000, 60.000000)">
                    <mask id="mask-2" fill="white">
                        <use xlink:href="#path-1"></use>
                    </mask>
                    <g id="Clip-16"></g>
                    <path d="M0.952885714,5.21665714 C0.877457143,5.16608571 0.827742857,5.07522857 0.827742857,4.96637143 C0.827742857,4.78294286 0.969171429,4.64151429 1.14402857,4.64151429 C1.22717143,4.64151429 1.3026,4.67494286 1.34374286,4.71694286 C1.89402857,5.18322857 2.44345714,5.40865714 3.18488571,5.40865714 C3.96917143,5.40865714 4.48517143,4.99122857 4.48517143,4.41608571 L4.48517143,4.40065714 C4.48517143,3.85894286 4.19288571,3.55037143 2.96888571,3.29237143 C1.62745714,3.00008571 1.01031429,2.56722857 1.01031429,1.60894286 L1.01031429,1.5918 C1.01031429,0.675514286 1.81945714,0.000942857143 2.92688571,0.000942857143 C3.69317143,0.000942857143 4.25202857,0.192942857 4.78517143,0.576085714 C4.85202857,0.626657143 4.9266,0.717514286 4.9266,0.842657143 C4.9266,1.01837143 4.78517143,1.1598 4.61031429,1.1598 C4.53488571,1.1598 4.4766,1.14265714 4.41831429,1.10065714 C3.92717143,0.742371429 3.45145714,0.592371429 2.9106,0.592371429 C2.15202857,0.592371429 1.6686,1.0098 1.6686,1.53437143 L1.6686,1.55151429 C1.6686,2.10008571 1.96945714,2.40951429 3.2526,2.6838 C4.55117143,2.96751429 5.15117143,3.44237143 5.15117143,4.3338 L5.15117143,4.35008571 C5.15117143,5.34951429 4.31888571,6.00008571 3.16002857,6.00008571 C2.3106,6.00008571 1.6026,5.73351429 0.952885714,5.21665714" id="Fill-15" fill="#FEFEFE" mask="url(#mask-2)"></path>
                </g>
                <path d="M0.52856877,47.5739754 C0.263353806,47.3874288 0,47.0143356 0,46.5291307 C0,45.8573792 0.565791923,45.2977394 1.28419877,45.2977394 C1.54848316,45.2977394 1.81276754,45.3721742 2.00167504,45.5219629 C4.00335008,46.8654659 6.08319375,47.5739754 8.1983994,47.5739754 C10.5415969,47.5739754 12.2408338,46.380261 12.2408338,44.5147951 L12.2408338,44.4394413 C12.2408338,42.4995405 9.93579006,41.7533542 7.36739252,41.0448447 C4.30764936,40.1856276 0.906383771,39.1417019 0.906383771,35.5963977 L0.906383771,35.5219629 C0.906383771,32.2008822 3.70184255,30 7.55630002,30 C9.63428252,30 11.9011725,30.6340746 13.7911781,31.6421614 C14.1680625,31.8654659 14.5086544,32.276236 14.5086544,32.8358758 C14.5086544,33.5076273 13.9419319,34.067267 13.2244556,34.067267 C12.9583101,34.067267 12.73311,33.9928322 12.5814256,33.9174784 C10.9194119,32.9847455 9.14386749,32.4251057 7.48092313,32.4251057 C5.1758794,32.4251057 3.70184255,33.6188201 3.70184255,35.2242235 L3.70184255,35.2986583 C3.70184255,37.1264473 6.1204169,37.8358758 8.72789875,38.6188201 C11.7504188,39.5147951 15,40.6717515 15,44.1417019 L15,44.2161367 C15,47.8726337 11.9393263,50 8.04764564,50 C5.47738693,50 2.64377443,49.067267 0.52856877,47.5739754" id="Fill-18" fill="#FEFEFE"></path>
                <path d="M16,40.0738849 L16,40 C16,34.592721 20.3660658,30 26.1488158,30 C29.4424649,30 31.6636973,31.2222932 33.4255921,32.7775244 C33.6557326,32.9626927 33.8849298,33.3330293 33.8849298,33.7772508 C33.8849298,34.5553224 33.2331796,35.1482259 32.4682457,35.1482259 C32.0853071,35.1482259 31.7400964,35.0004561 31.5108992,34.8143756 C30.0932719,33.5555961 28.4841752,32.5184712 26.1110878,32.5184712 C22.0892895,32.5184712 19.0257808,35.8150141 19.0257808,39.925203 L19.0257808,40 C19.0257808,44.1475873 22.1656885,47.4441303 26.3016139,47.4441303 C28.5615175,47.4441303 30.3620834,46.4444039 31.8174387,45.1108273 C32.008908,44.925659 32.2767764,44.7404907 32.6587717,44.7404907 C33.386921,44.7404907 34,45.3698805 34,46.0366688 C34,46.370519 33.8472018,46.7034571 33.6170614,46.9260239 C31.7400964,48.7403083 29.481136,50 26.1488158,50 C20.3660658,50 16,45.4446776 16,40.0738849" id="Fill-20" fill="#FEFEFE"></path>
                <path d="M53.0684456,40.0738849 L53.0684456,40 C53.0684456,35.888899 49.9888513,32.5184712 45.9442566,32.5184712 C41.7890889,32.5184712 38.9315544,35.888899 38.9315544,39.925203 L38.9315544,40 C38.9315544,44.111101 41.9745956,47.4441303 46.0191903,47.4441303 C50.174358,47.4441303 53.0684456,44.111101 53.0684456,40.0738849 M36,40.0738849 L36,40 C36,34.592721 40.2301014,30 46.0191903,30 C51.7698986,30 56,34.5188361 56,39.925203 L56,40 C56,45.407279 51.7324317,50 45.9442566,50 C40.1935484,50 36,45.4811639 36,40.0738849" id="Fill-22" fill="#FEFEFE"></path>
                <path d="M76,48.3116163 C76,49.0998983 75.3974989,49.7745125 74.5675513,49.7745125 C73.7756662,49.7745125 73.1351027,49.1368635 73.1351027,48.3116163 L73.1351027,46.2101469 C71.8159131,48.3116163 69.8180974,50 66.4639581,50 C61.7507099,50 59,46.8487201 59,42.2326957 L59,31.4638203 C59,30.637649 59.6025011,30 60.4315203,30 C61.2234054,30 61.9011031,30.637649 61.9011031,31.4638203 L61.9011031,41.5192681 C61.9011031,45.121523 63.8617846,47.3736254 67.2920489,47.3736254 C70.6090542,47.3736254 73.1351027,44.9348489 73.1351027,41.2947047 L73.1351027,31.4638203 C73.1351027,30.637649 73.7376038,30 74.5675513,30 C75.3594364,30 76,30.637649 76,31.4638203 L76,48.3116163 Z" id="Fill-24" fill="#FEFEFE"></path>
                <path d="M81.832492,44.4747087 L81.832492,32.667288 L80.2675539,32.667288 C79.5966039,32.667288 79,32.0614447 79,31.380104 C79,30.6614806 79.5966039,30.0929199 80.2675539,30.0929199 L81.832492,30.0929199 L81.832492,25.4763936 C81.832492,24.6813407 82.4290959,24 83.248738,24 C84.0316659,24 84.7026159,24.6813407 84.7026159,25.4763936 L84.7026159,30.0929199 L89.6966498,30.0929199 C90.4052318,30.0929199 91,30.6987632 91,31.380104 C91,32.0987274 90.4052318,32.667288 89.6966498,32.667288 L84.7026159,32.667288 L84.7026159,44.0962897 C84.7026159,46.4805162 86.0068839,47.3501344 87.9444699,47.3501344 C88.9513538,47.3501344 89.4726939,47.0854275 89.6966498,47.0854275 C90.3675998,47.0854275 90.9265718,47.6539882 90.9265718,48.3353289 C90.9265718,48.8647428 90.5906379,49.2804445 90.1060119,49.4696541 C89.2863699,49.8107905 88.391464,50 87.27352,50 C84.1812758,50 81.832492,48.448109 81.832492,44.4747087" id="Fill-26" fill="#FEFEFE"></path>
                <path d="M44.9905841,13.9942922 C40.8343478,11.5437254 38.5294334,10.838807 34.5829027,10.7275041 C34.2614157,10.7189423 33.9990527,10.4088162 34.0009003,10.0225856 C34.0064432,9.03512898 33.9972051,8.51476407 34.0009003,7.62624337 C34.0018241,7.27045457 34.2531014,6.98981902 34.5487216,7.00028339 C38.4231949,7.13917421 40.7271854,7.84504397 44.8316882,10.2099931 C44.8880408,10.2413862 44.9490125,10.2585097 45.010908,10.2585097 C45.0728035,10.2585097 45.1337752,10.2413862 45.189204,10.2099931 C49.2567542,7.86882665 51.5459638,7.15629774 55.3520748,7.00979646 C55.7031239,6.99552686 55.9987442,7.33609475 55.999668,7.75657243 C56.0015156,8.95902442 55.9950489,10.0596866 55.9950489,10.0596866 C55.9950489,10.4364041 55.7382288,10.7398711 55.4241323,10.7474815 C51.4997731,10.8445148 49.2345827,11.5627516 45.0312319,13.9942922 C45.0229176,13.9961948 45.0192223,13.9971461 45.010908,14 C45.0035175,14 44.9970508,13.9980974 44.9905841,13.9942922" id="Fill-28" fill="#FEFEFE"></path>
                <path d="M44.9905841,6.99524282 C40.8343478,4.54434301 38.5294334,3.83932874 34.5829027,3.7280107 C34.2614157,3.71944777 33.9990527,3.40927955 34.0009003,3.02299643 C34.0064432,2.03540559 33.9972051,1.51496996 34.0009003,0.626328492 C34.0018241,0.270491331 34.2531014,-0.0101823659 34.5487216,0.000283432949 C38.4231949,0.139193127 40.7271854,0.845158832 44.8316882,3.21042938 C44.8880408,3.24182677 44.9490125,3.25895262 45.010908,3.25895262 C45.0728035,3.25895262 45.1337752,3.24182677 45.189204,3.21042938 C49.2567542,0.868944739 51.5459638,0.15631898 55.3520748,0.00979779555 C55.7031239,-0.00447374835 55.9987442,0.336140433 55.999668,0.75667526 C56.0015156,1.95929069 55.9950489,3.06010245 55.9950489,3.06010245 C55.9950489,3.43687121 55.7382288,3.74037937 55.4241323,3.74799086 C51.4997731,3.84503736 49.2345827,4.56337174 45.0312319,6.99524282 C45.0229176,6.99714569 45.0192223,6.99809713 45.010908,7 C45.0035175,7 44.9970508,6.99904856 44.9905841,6.99524282" id="Fill-30" fill="#FEFEFE"></path>
                <path d="M44.9905841,19.9942922 C40.8343478,17.5437254 38.5294334,16.838807 34.5829027,16.7275041 C34.2614157,16.7189423 33.9990527,16.4088162 34.0009003,16.0225856 C34.0064432,15.035129 33.9972051,14.5147641 34.0009003,13.6262434 C34.0018241,13.2704546 34.2531014,12.989819 34.5487216,13.0002834 C38.4231949,13.1391742 40.7271854,13.845044 44.8316882,16.2099931 C44.8880408,16.2413862 44.9490125,16.2585097 45.010908,16.2585097 C45.0728035,16.2585097 45.1337752,16.2413862 45.189204,16.2099931 C49.2567542,13.8688266 51.5459638,13.1562977 55.3520748,13.0097965 C55.7031239,12.9955269 55.9987442,13.3360948 55.999668,13.7565724 C56.0015156,14.9590244 55.9950489,16.0596866 55.9950489,16.0596866 C55.9950489,16.4364041 55.7382288,16.7398711 55.4241323,16.7474815 C51.4997731,16.8445148 49.2345827,17.5627516 45.0312319,19.9942922 C45.0229176,19.9961948 45.0192223,19.9971461 45.010908,20 C45.0035175,20 44.9970508,19.9980974 44.9905841,19.9942922" id="Fill-32" fill="#FEFEFE"></path>
            </g>
        </g>
    </g>
</svg>