<?xml version="1.0" encoding="UTF-8"?>
<svg width="99px" height="73px" viewBox="0 0 99 73" version="1.1" xmlns="http://www.w3.org/2000/svg" xmlns:xlink="http://www.w3.org/1999/xlink">
    <!-- Generator: Sketch 55.2 (78181) - https://sketchapp.com -->
    <title>Group 33</title>
    <desc>Created with Sketch.</desc>
    <g id="Home" stroke="none" stroke-width="1" fill="none" fill-rule="evenodd">
        <g id="Group-33">
            <path d="M20.1504,69.7781 L18.5864,66.2991 L17.0204,69.7781 L20.1504,69.7781 Z M15.3384,71.7701 L18.0994,65.7351 C18.1974,65.5211 18.3424,65.3941 18.5864,65.3941 L18.6254,65.3941 C18.8574,65.3941 19.0134,65.5211 19.1004,65.7351 L21.8614,71.7601 C21.8904,71.8291 21.9104,71.8971 21.9104,71.9561 C21.9104,72.1601 21.7444,72.3251 21.5404,72.3251 C21.3554,72.3251 21.2294,72.1981 21.1614,72.0431 L20.4524,70.4781 L16.7194,70.4781 L16.0094,72.0621 C15.9414,72.2271 15.8154,72.3251 15.6404,72.3251 C15.4464,72.3251 15.2914,72.1701 15.2914,71.9741 C15.2914,71.9171 15.3004,71.8481 15.3384,71.7701 L15.3384,71.7701 Z" id="Fill-1" fill="#004561"></path>
            <path d="M26.1729,65.8123 C26.1729,65.5983 26.3479,65.4233 26.5519,65.4233 C26.7659,65.4233 26.9409,65.5983 26.9409,65.8123 L26.9409,71.9363 C26.9409,72.1503 26.7659,72.3253 26.5519,72.3253 C26.3479,72.3253 26.1729,72.1503 26.1729,71.9363 L26.1729,65.8123 Z" id="Fill-3" fill="#004561"></path>
            <path d="M34.5156,68.9422 C35.5366,68.9422 36.2646,68.4182 36.2646,67.5432 L36.2646,67.5232 C36.2646,66.6872 35.6226,66.1812 34.5256,66.1812 L32.4256,66.1812 L32.4256,68.9422 L34.5156,68.9422 Z M31.6576,65.8612 C31.6576,65.6472 31.8326,65.4722 32.0366,65.4722 L34.5826,65.4722 C35.4186,65.4722 36.0896,65.7252 36.5176,66.1532 C36.8476,66.4832 37.0416,66.9602 37.0416,67.4942 L37.0416,67.5132 C37.0416,68.6312 36.2846,69.2822 35.2246,69.4862 L36.9156,71.6642 C36.9946,71.7522 37.0416,71.8382 37.0416,71.9462 C37.0416,72.1502 36.8476,72.3252 36.6536,72.3252 C36.4976,72.3252 36.3816,72.2372 36.2936,72.1212 L34.3786,69.6322 L32.4256,69.6322 L32.4256,71.9362 C32.4256,72.1502 32.2506,72.3252 32.0366,72.3252 C31.8326,72.3252 31.6576,72.1502 31.6576,71.9362 L31.6576,65.8612 Z" id="Fill-5" fill="#004561"></path>
            <path d="M41.4121,65.8123 C41.4121,65.5983 41.5881,65.4233 41.7921,65.4233 C42.0051,65.4233 42.1811,65.5983 42.1811,65.8123 L42.1811,71.5663 L45.7091,71.5663 C45.9031,71.5663 46.0581,71.7323 46.0581,71.9263 C46.0581,72.1213 45.9031,72.2763 45.7091,72.2763 L41.7921,72.2763 C41.5881,72.2763 41.4121,72.1013 41.4121,71.8873 L41.4121,65.8123 Z" id="Fill-7" fill="#004561"></path>
            <path d="M50.2236,65.8123 C50.2236,65.5983 50.3986,65.4233 50.6026,65.4233 C50.8166,65.4233 50.9916,65.5983 50.9916,65.8123 L50.9916,71.9363 C50.9916,72.1503 50.8166,72.3253 50.6026,72.3253 C50.3986,72.3253 50.2236,72.1503 50.2236,71.9363 L50.2236,65.8123 Z" id="Fill-9" fill="#004561"></path>
            <path d="M55.708,65.822 C55.708,65.618 55.884,65.443 56.088,65.443 L56.194,65.443 C56.369,65.443 56.477,65.531 56.583,65.667 L60.714,70.934 L60.714,65.802 C60.714,65.598 60.879,65.424 61.093,65.424 C61.297,65.424 61.463,65.598 61.463,65.802 L61.463,71.946 C61.463,72.15 61.316,72.305 61.112,72.305 L61.073,72.305 C60.908,72.305 60.792,72.208 60.675,72.072 L56.457,66.677 L56.457,71.946 C56.457,72.15 56.292,72.325 56.078,72.325 C55.874,72.325 55.708,72.15 55.708,71.946 L55.708,65.822 Z" id="Fill-11" fill="#004561"></path>
            <path d="M66.1143,71.8875 L66.1143,65.8615 C66.1143,65.6475 66.2903,65.4725 66.4943,65.4725 L70.7213,65.4725 C70.9163,65.4725 71.0713,65.6275 71.0713,65.8225 C71.0713,66.0165 70.9163,66.1715 70.7213,66.1715 L66.8833,66.1715 L66.8833,68.4945 L70.2843,68.4945 C70.4783,68.4945 70.6353,68.6595 70.6353,68.8455 C70.6353,69.0395 70.4783,69.1955 70.2843,69.1955 L66.8833,69.1955 L66.8833,71.5755 L70.7703,71.5755 C70.9653,71.5755 71.1203,71.7325 71.1203,71.9265 C71.1203,72.1205 70.9653,72.2765 70.7703,72.2765 L66.4943,72.2765 C66.2903,72.2765 66.1143,72.1015 66.1143,71.8875" id="Fill-13" fill="#004561"></path>
            <path d="M75.1113,71.4597 C75.0233,71.4007 74.9653,71.2947 74.9653,71.1677 C74.9653,70.9537 75.1303,70.7887 75.3343,70.7887 C75.4313,70.7887 75.5193,70.8277 75.5673,70.8767 C76.2093,71.4207 76.8503,71.6837 77.7153,71.6837 C78.6303,71.6837 79.2323,71.1967 79.2323,70.5257 L79.2323,70.5077 C79.2323,69.8757 78.8913,69.5157 77.4633,69.2147 C75.8983,68.8737 75.1783,68.3687 75.1783,67.2507 L75.1783,67.2307 C75.1783,66.1617 76.1223,65.3747 77.4143,65.3747 C78.3083,65.3747 78.9603,65.5987 79.5823,66.0457 C79.6603,66.1047 79.7473,66.2107 79.7473,66.3567 C79.7473,66.5617 79.5823,66.7267 79.3783,66.7267 C79.2903,66.7267 79.2223,66.7067 79.1543,66.6577 C78.5813,66.2397 78.0263,66.0647 77.3953,66.0647 C76.5103,66.0647 75.9463,66.5517 75.9463,67.1637 L75.9463,67.1837 C75.9463,67.8237 76.2973,68.1847 77.7943,68.5047 C79.3093,68.8357 80.0093,69.3897 80.0093,70.4297 L80.0093,70.4487 C80.0093,71.6147 79.0383,72.3737 77.6863,72.3737 C76.6953,72.3737 75.8693,72.0627 75.1113,71.4597" id="Fill-15" fill="#004561"></path>
            <path d="M0.5684,51.9143 C0.2834,51.7113 0.0004,51.3053 0.0004,50.7773 C0.0004,50.0463 0.6084,49.4373 1.3804,49.4373 C1.6644,49.4373 1.9484,49.5183 2.1514,49.6813 C4.3024,51.1433 6.5374,51.9143 8.8104,51.9143 C11.3284,51.9143 13.1544,50.6153 13.1544,48.5853 L13.1544,48.5033 C13.1544,46.3923 10.6774,45.5803 7.9174,44.8093 C4.6294,43.8743 0.9744,42.7383 0.9744,38.8803 L0.9744,38.7993 C0.9744,35.1853 3.9784,32.7903 8.1204,32.7903 C10.3534,32.7903 12.7894,33.4803 14.8204,34.5773 C15.2254,34.8203 15.5914,35.2673 15.5914,35.8763 C15.5914,36.6073 14.9824,37.2163 14.2114,37.2163 C13.9254,37.2163 13.6834,37.1353 13.5204,37.0533 C11.7344,36.0383 9.8264,35.4293 8.0394,35.4293 C5.5624,35.4293 3.9784,36.7283 3.9784,38.4753 L3.9784,38.5563 C3.9784,40.5453 6.5774,41.3173 9.3794,42.1693 C12.6274,43.1443 16.1194,44.4033 16.1194,48.1793 L16.1194,48.2603 C16.1194,52.2393 12.8304,54.5543 8.6484,54.5543 C5.8864,54.5543 2.8414,53.5393 0.5684,51.9143" id="Fill-17" fill="#004561"></path>
            <path d="M18.1914,43.7532 L18.1914,43.6722 C18.1914,37.7442 22.8204,32.7092 28.9514,32.7092 C32.4434,32.7092 34.7984,34.0492 36.6664,35.7542 C36.9104,35.9572 37.1534,36.3632 37.1534,36.8502 C37.1534,37.7032 36.4624,38.3532 35.6514,38.3532 C35.2454,38.3532 34.8794,38.1912 34.6364,37.9872 C33.1334,36.6072 31.4274,35.4702 28.9114,35.4702 C24.6474,35.4702 21.3994,39.0842 21.3994,43.5902 L21.3994,43.6722 C21.3994,48.2192 24.7284,51.8332 29.1134,51.8332 C31.5094,51.8332 33.4184,50.7372 34.9614,49.2752 C35.1644,49.0722 35.4484,48.8692 35.8534,48.8692 C36.6254,48.8692 37.2754,49.5592 37.2754,50.2902 C37.2754,50.6562 37.1134,51.0212 36.8694,51.2652 C34.8794,53.2542 32.4844,54.6352 28.9514,54.6352 C22.8204,54.6352 18.1914,49.6412 18.1914,43.7532" id="Fill-19" fill="#004561"></path>
            <path d="M57.8232,43.7532 L57.8232,43.6722 C57.8232,39.1652 54.4532,35.4702 50.0272,35.4702 C45.4802,35.4702 42.3532,39.1652 42.3532,43.5902 L42.3532,43.6722 C42.3532,48.1792 45.6832,51.8332 50.1092,51.8332 C54.6562,51.8332 57.8232,48.1792 57.8232,43.7532 M39.1452,43.7532 L39.1452,43.6722 C39.1452,37.7442 43.7742,32.7092 50.1092,32.7092 C56.4022,32.7092 61.0312,37.6632 61.0312,43.5902 L61.0312,43.6722 C61.0312,49.6002 56.3612,54.6352 50.0272,54.6352 C43.7342,54.6352 39.1452,49.6812 39.1452,43.7532" id="Fill-21" fill="#004561"></path>
            <path d="M82.2295,52.7674 C82.2295,53.6204 81.5805,54.3504 80.6865,54.3504 C79.8335,54.3504 79.1435,53.6604 79.1435,52.7674 L79.1435,50.4934 C77.7225,52.7674 75.5705,54.5944 71.9575,54.5944 C66.8805,54.5944 63.9175,51.1844 63.9175,46.1894 L63.9175,34.5364 C63.9175,33.6424 64.5665,32.9524 65.4595,32.9524 C66.3125,32.9524 67.0425,33.6424 67.0425,34.5364 L67.0425,45.4174 C67.0425,49.3154 69.1545,51.7524 72.8495,51.7524 C76.4225,51.7524 79.1435,49.1134 79.1435,45.1744 L79.1435,34.5364 C79.1435,33.6424 79.7925,32.9524 80.6865,32.9524 C81.5395,32.9524 82.2295,33.6424 82.2295,34.5364 L82.2295,52.7674 Z" id="Fill-23" fill="#004561"></path>
            <path d="M88.7285,48.5852 L88.7285,35.9172 L87.0235,35.9172 C86.2925,35.9172 85.6425,35.2672 85.6425,34.5362 C85.6425,33.7652 86.2925,33.1552 87.0235,33.1552 L88.7285,33.1552 L88.7285,28.2022 C88.7285,27.3492 89.3785,26.6182 90.2715,26.6182 C91.1245,26.6182 91.8555,27.3492 91.8555,28.2022 L91.8555,33.1552 L97.2965,33.1552 C98.0685,33.1552 98.7165,33.8052 98.7165,34.5362 C98.7165,35.3072 98.0685,35.9172 97.2965,35.9172 L91.8555,35.9172 L91.8555,48.1792 C91.8555,50.7372 93.2765,51.6702 95.3875,51.6702 C96.4845,51.6702 97.0525,51.3862 97.2965,51.3862 C98.0275,51.3862 98.6365,51.9962 98.6365,52.7272 C98.6365,53.2952 98.2705,53.7412 97.7425,53.9442 C96.8495,54.3102 95.8745,54.5132 94.6565,54.5132 C91.2875,54.5132 88.7285,52.8482 88.7285,48.5852" id="Fill-25" fill="#004561"></path>
            <path d="M48.5566,14.6902 C44.0576,12.1142 41.5636,11.3732 37.2906,11.2572 C36.9426,11.2472 36.6596,10.9212 36.6606,10.5152 C36.6676,9.4772 36.6576,8.9302 36.6606,7.9962 C36.6626,7.6222 36.9336,7.3272 37.2536,7.3382 C41.4486,7.4842 43.9416,8.2262 48.3846,10.7122 C48.4456,10.7452 48.5116,10.7632 48.5786,10.7632 C48.6456,10.7632 48.7116,10.7452 48.7716,10.7122 C53.1746,8.2522 55.6526,7.5022 59.7736,7.3482 C60.1536,7.3342 60.4726,7.6912 60.4736,8.1342 C60.4756,9.3972 60.4696,10.5552 60.4696,10.5552 C60.4696,10.9502 60.1906,11.2692 59.8516,11.2772 C55.6036,11.3802 53.1516,12.1342 48.6016,14.6902 C48.5926,14.6922 48.5876,14.6932 48.5786,14.6962 C48.5706,14.6962 48.5636,14.6942 48.5566,14.6902" id="Fill-27" fill="#EE4136"></path>
            <path d="M48.5566,7.3523 C44.0576,4.7763 41.5636,4.0353 37.2906,3.9193 C36.9426,3.9093 36.6596,3.5833 36.6606,3.1773 C36.6676,2.1393 36.6576,1.5923 36.6606,0.6583 C36.6626,0.2843 36.9336,-0.0107 37.2536,0.0003 C41.4486,0.1463 43.9416,0.8883 48.3846,3.3743 C48.4456,3.4073 48.5116,3.4253 48.5786,3.4253 C48.6456,3.4253 48.7116,3.4073 48.7716,3.3743 C53.1746,0.9143 55.6526,0.1643 59.7736,0.0103 C60.1536,-0.0037 60.4726,0.3533 60.4736,0.7963 C60.4756,2.0593 60.4696,3.2173 60.4696,3.2173 C60.4696,3.6123 60.1906,3.9313 59.8516,3.9393 C55.6036,4.0423 53.1516,4.7963 48.6016,7.3523 C48.5926,7.3543 48.5876,7.3553 48.5786,7.3583 C48.5706,7.3583 48.5636,7.3563 48.5566,7.3523" id="Fill-29" fill="#004561"></path>
            <path d="M48.5566,22.0281 C44.0576,19.4521 41.5636,18.7111 37.2906,18.5951 C36.9426,18.5851 36.6596,18.2591 36.6606,17.8531 C36.6676,16.8151 36.6576,16.2681 36.6606,15.3341 C36.6626,14.9601 36.9336,14.6651 37.2536,14.6761 C41.4486,14.8221 43.9416,15.5641 48.3846,18.0501 C48.4456,18.0831 48.5116,18.1011 48.5786,18.1011 C48.6456,18.1011 48.7116,18.0831 48.7716,18.0501 C53.1746,15.5901 55.6526,14.8401 59.7736,14.6861 C60.1536,14.6721 60.4726,15.0291 60.4736,15.4721 C60.4756,16.7351 60.4696,17.8931 60.4696,17.8931 C60.4696,18.2881 60.1906,18.6071 59.8516,18.6151 C55.6036,18.7181 53.1516,19.4721 48.6016,22.0281 C48.5926,22.0301 48.5876,22.0311 48.5786,22.0341 C48.5706,22.0341 48.5636,22.0321 48.5566,22.0281" id="Fill-31" fill="#40B5E4"></path>
        </g>
    </g>
</svg>