<?xml version="1.0" encoding="UTF-8"?>
<svg width="18px" height="36px" viewBox="0 0 18 36" version="1.1" xmlns="http://www.w3.org/2000/svg" xmlns:xlink="http://www.w3.org/1999/xlink">
    <!-- Generator: Sketch 55.2 (78181) - https://sketchapp.com -->
    <title>Shape Copy</title>
    <desc>Created with Sketch.</desc>
    <g id="Home" stroke="none" stroke-width="1" fill="none" fill-rule="evenodd">
        <g id="Homepage-Mobile-" transform="translate(-170.000000, -1257.000000)" fill="#FFFFFF" fill-rule="nonzero">
            <path d="M180.820655,1271.25053 C183.935209,1271.25053 186.858509,1269.18042 187.956133,1265.87258 C188.096569,1265.4485 187.888686,1264.98201 187.491398,1264.8321 C185.597351,1264.1161 183.556399,1264.22656 181.740885,1265.14178 C182.201,1264.49777 182.705464,1263.87841 183.257047,1263.28963 C183.555475,1262.97108 183.555475,1262.45528 183.257047,1262.13672 C182.958619,1261.81817 182.475406,1261.81817 182.176978,1262.13672 C181.783386,1262.55686 181.411968,1262.99179 181.0618,1263.43954 C180.978647,1261.01734 179.881947,1258.66122 177.893659,1257.1513 C177.549959,1256.88994 177.073213,1256.97575 176.828373,1257.34263 C175.657759,1259.09911 175.19672,1261.23727 175.533029,1263.3636 C175.843468,1265.33114 176.802503,1267.06889 178.247523,1268.30859 C177.996215,1268.92893 177.777245,1269.56111 177.58784,1270.20118 C177.438164,1269.84317 177.263542,1269.49503 177.06305,1269.15774 C175.981133,1267.33714 174.300513,1266.07476 172.328855,1265.60334 C172.131135,1265.556 171.924176,1265.59447 171.75325,1265.71084 C171.582323,1265.82623 171.461289,1266.01066 171.416941,1266.22171 C170.537364,1270.41322 172.900765,1274.58697 176.724893,1275.74678 C176.705491,1276.61072 176.739676,1277.47565 176.824677,1278.33664 C176.647284,1278.16898 176.462498,1278.00822 176.269398,1277.85634 C174.640517,1276.57818 172.645762,1276.05449 170.648235,1276.37995 C170.231544,1276.448 169.945127,1276.86419 170.008878,1277.30898 C170.313774,1279.44024 171.378136,1281.31704 173.005169,1282.59422 C174.317143,1283.62385 175.869338,1284.16431 177.467729,1284.16431 C177.723657,1284.16431 177.980508,1284.14952 178.238283,1284.12091 C178.55057,1284.8961 178.910901,1285.65353 179.319276,1286.38926 C176.956799,1285.58054 174.268175,1286.02238 172.209669,1287.82226 C171.883523,1288.10728 171.835479,1288.62111 172.102494,1288.96925 C173.382131,1290.63698 175.193949,1291.67351 177.203487,1291.88753 C177.45849,1291.91514 177.713494,1291.92796 177.966649,1291.92796 C179.526236,1291.92796 181.03131,1291.4161 182.3091,1290.45157 C183.169274,1291.35101 184.107059,1292.16367 185.103051,1292.86489 C185.2324,1292.95661 185.37838,1293 185.523437,1293 C185.771049,1293 186.014965,1292.8708 186.161869,1292.63411 C186.393775,1292.25835 186.297686,1291.75241 185.945671,1291.50487 C184.983864,1290.82732 184.079341,1290.03833 183.257047,1289.16058 C181.416587,1287.196 180.085211,1284.89314 179.258297,1282.43741 C182.884705,1280.94523 184.902559,1276.69653 183.792924,1272.64408 C183.674662,1272.21211 183.25058,1271.96457 182.8459,1272.08982 C180.907504,1272.69438 179.305417,1274.06919 178.335296,1275.9608 C178.304806,1276.02096 178.276164,1276.0821 178.247523,1276.14325 C178.254914,1274.40846 178.490515,1272.67564 178.956174,1270.99904 C179.575204,1271.16769 180.201625,1271.25053 180.820655,1271.25053 Z M176.977435,1274 C174.417109,1273.08529 172.790021,1270.6182 173.021928,1268 C174.268427,1268.44341 175.324164,1269.26188 176.047937,1270.36007 C176.771711,1271.45825 177.091518,1272.72643 176.977435,1274 Z M174.258957,1280.64321 C173.160591,1279.72867 172.378064,1278.45835 172,1277.00107 C172.032998,1277 172.065996,1277 172.098994,1277 C174.812382,1277 177.230673,1279.04169 178,1281.999 C176.661219,1282.02464 175.357322,1281.55775 174.258957,1280.64321 Z M177.382443,1290.96369 C176.101781,1290.80514 174.925318,1290.13993 174,1289.0645 C176.216667,1287.37042 179.095038,1287.72631 181,1289.93261 C179.921501,1290.75858 178.663104,1291.12223 177.382443,1290.96369 Z M179.818243,1277.44746 C180.523036,1276.34931 181.608661,1275.49971 182.926847,1275 C183.367596,1277.50115 181.783336,1279.9694 179.074859,1281 C178.858546,1279.7832 179.112434,1278.54561 179.818243,1277.44746 Z M181.519007,1266.69652 C182.617338,1266.01939 183.83013,1265.83324 185,1266.15003 C183.873895,1268.97611 181.40707,1270.49909 179,1269.85245 C179.54622,1268.47643 180.420676,1267.37473 181.519007,1266.69652 Z M177.098833,1263.69816 C176.841692,1262.41751 177.090261,1261.13057 177.798469,1260 C180.079518,1261.79651 180.658084,1264.67595 179.20417,1267 C178.093109,1266.12736 177.355973,1264.97971 177.098833,1263.69816 Z" id="Shape-Copy" transform="translate(179.000000, 1275.000000) scale(-1, 1) translate(-179.000000, -1275.000000) "></path>
        </g>
    </g>
</svg>