<?xml version="1.0" encoding="UTF-8"?>
<svg width="18px" height="36px" viewBox="0 0 18 36" version="1.1" xmlns="http://www.w3.org/2000/svg" xmlns:xlink="http://www.w3.org/1999/xlink">
    <!-- Generator: Sketch 55.2 (78181) - https://sketchapp.com -->
    <title>Shape</title>
    <desc>Created with Sketch.</desc>
    <g id="Home" stroke="none" stroke-width="1" fill="none" fill-rule="evenodd">
        <g id="Homepage-Mobile-" transform="translate(-130.000000, -1257.000000)" fill="#FFFFFF" fill-rule="nonzero">
            <path d="M140.820655,1271.25053 C143.935209,1271.25053 146.858509,1269.18042 147.956133,1265.87258 C148.096569,1265.4485 147.888686,1264.98201 147.491398,1264.8321 C145.597351,1264.1161 143.556399,1264.22656 141.740885,1265.14178 C142.201,1264.49777 142.705464,1263.87841 143.257047,1263.28963 C143.555475,1262.97108 143.555475,1262.45528 143.257047,1262.13672 C142.958619,1261.81817 142.475406,1261.81817 142.176978,1262.13672 C141.783386,1262.55686 141.411968,1262.99179 141.0618,1263.43954 C140.978647,1261.01734 139.881947,1258.66122 137.893659,1257.1513 C137.549959,1256.88994 137.073213,1256.97575 136.828373,1257.34263 C135.657759,1259.09911 135.19672,1261.23727 135.533029,1263.3636 C135.843468,1265.33114 136.802503,1267.06889 138.247523,1268.30859 C137.996215,1268.92893 137.777245,1269.56111 137.58784,1270.20118 C137.438164,1269.84317 137.263542,1269.49503 137.06305,1269.15774 C135.981133,1267.33714 134.300513,1266.07476 132.328855,1265.60334 C132.131135,1265.556 131.924176,1265.59447 131.75325,1265.71084 C131.582323,1265.82623 131.461289,1266.01066 131.416941,1266.22171 C130.537364,1270.41322 132.900765,1274.58697 136.724893,1275.74678 C136.705491,1276.61072 136.739676,1277.47565 136.824677,1278.33664 C136.647284,1278.16898 136.462498,1278.00822 136.269398,1277.85634 C134.640517,1276.57818 132.645762,1276.05449 130.648235,1276.37995 C130.231544,1276.448 129.945127,1276.86419 130.008878,1277.30898 C130.313774,1279.44024 131.378136,1281.31704 133.005169,1282.59422 C134.317143,1283.62385 135.869338,1284.16431 137.467729,1284.16431 C137.723657,1284.16431 137.980508,1284.14952 138.238283,1284.12091 C138.55057,1284.8961 138.910901,1285.65353 139.319276,1286.38926 C136.956799,1285.58054 134.268175,1286.02238 132.209669,1287.82226 C131.883523,1288.10728 131.835479,1288.62111 132.102494,1288.96925 C133.382131,1290.63698 135.193949,1291.67351 137.203487,1291.88753 C137.45849,1291.91514 137.713494,1291.92796 137.966649,1291.92796 C139.526236,1291.92796 141.03131,1291.4161 142.3091,1290.45157 C143.169274,1291.35101 144.107059,1292.16367 145.103051,1292.86489 C145.2324,1292.95661 145.37838,1293 145.523437,1293 C145.771049,1293 146.014965,1292.8708 146.161869,1292.63411 C146.393775,1292.25835 146.297686,1291.75241 145.945671,1291.50487 C144.983864,1290.82732 144.079341,1290.03833 143.257047,1289.16058 C141.416587,1287.196 140.085211,1284.89314 139.258297,1282.43741 C142.884705,1280.94523 144.902559,1276.69653 143.792924,1272.64408 C143.674662,1272.21211 143.25058,1271.96457 142.8459,1272.08982 C140.907504,1272.69438 139.305417,1274.06919 138.335296,1275.9608 C138.304806,1276.02096 138.276164,1276.0821 138.247523,1276.14325 C138.254914,1274.40846 138.490515,1272.67564 138.956174,1270.99904 C139.575204,1271.16769 140.201625,1271.25053 140.820655,1271.25053 Z M136.977435,1274 C134.417109,1273.08529 132.790021,1270.6182 133.021928,1268 C134.268427,1268.44341 135.324164,1269.26188 136.047937,1270.36007 C136.771711,1271.45825 137.091518,1272.72643 136.977435,1274 Z M134.258957,1280.64321 C133.160591,1279.72867 132.378064,1278.45835 132,1277.00107 C132.032998,1277 132.065996,1277 132.098994,1277 C134.812382,1277 137.230673,1279.04169 138,1281.999 C136.661219,1282.02464 135.357322,1281.55775 134.258957,1280.64321 Z M137.382443,1290.96369 C136.101781,1290.80514 134.925318,1290.13993 134,1289.0645 C136.216667,1287.37042 139.095038,1287.72631 141,1289.93261 C139.921501,1290.75858 138.663104,1291.12223 137.382443,1290.96369 Z M139.818243,1277.44746 C140.523036,1276.34931 141.608661,1275.49971 142.926847,1275 C143.367596,1277.50115 141.783336,1279.9694 139.074859,1281 C138.858546,1279.7832 139.112434,1278.54561 139.818243,1277.44746 Z M141.519007,1266.69652 C142.617338,1266.01939 143.83013,1265.83324 145,1266.15003 C143.873895,1268.97611 141.40707,1270.49909 139,1269.85245 C139.54622,1268.47643 140.420676,1267.37473 141.519007,1266.69652 Z M137.098833,1263.69816 C136.841692,1262.41751 137.090261,1261.13057 137.798469,1260 C140.079518,1261.79651 140.658084,1264.67595 139.20417,1267 C138.093109,1266.12736 137.355973,1264.97971 137.098833,1263.69816 Z" id="Shape"></path>
        </g>
    </g>
</svg>