<?xml version="1.0" encoding="UTF-8"?>
<svg width="37px" height="37px" viewBox="0 0 37 37" version="1.1" xmlns="http://www.w3.org/2000/svg" xmlns:xlink="http://www.w3.org/1999/xlink">
    <!-- Generator: Sketch 55.2 (78181) - https://sketchapp.com -->
    <title>002-twitter</title>
    <desc>Created with Sketch.</desc>
    <g id="Home" stroke="none" stroke-width="1" fill="none" fill-rule="evenodd" opacity="0.899623326">
        <g id="Homepage" transform="translate(-701.000000, -4245.000000)" fill="#FFFFFF" fill-rule="nonzero">
            <g id="002-twitter" transform="translate(701.000000, 4245.000000)">
                <path d="M18.5,0 C8.28337432,0 0,8.28337432 0,18.5 C0,28.7166257 8.28337432,37 18.5,37 C28.7166257,37 37,28.7166257 37,18.5 C37,8.28109221 28.7166257,0 18.5,0 Z M27.9745622,14.5549708 L27.9885455,15.1414634 C27.9885455,21.1304663 23.3617135,28.030303 14.8997149,28.030303 C12.3025242,28.030303 9.8851176,27.2805428 7.84848485,25.9948289 C8.20820699,26.0362132 8.57484391,26.0592129 8.94624435,26.0592129 C11.1020418,26.0592129 13.0849698,25.3347221 14.6591575,24.1203527 C12.6458813,24.0835834 10.9478422,22.7726 10.3616227,20.9740834 C10.6442066,21.0269676 10.9291723,21.0523127 11.2281212,21.0523127 C11.6485398,21.0523127 12.0548983,20.9994285 12.4402819,20.8959298 C10.3358843,20.47732 8.7500183,18.6489189 8.7500183,16.4547921 L8.7500183,16.3972928 C9.37127273,16.7376734 10.0789619,16.9400557 10.8333642,16.9654008 C9.6001519,16.1535262 8.7873581,14.7666589 8.7873581,13.195794 C8.7873581,12.3655348 9.01393234,11.5881598 9.40861253,10.9188986 C11.6765062,13.6604032 15.0678209,15.463535 18.8912324,15.6521477 C18.8117893,15.3209216 18.7721446,14.9736563 18.7721446,14.6195062 C18.7721446,12.1194985 20.8321339,10.0909091 23.373315,10.0909091 C24.695267,10.0909091 25.8911395,10.6405567 26.7318997,11.5214304 C27.7782594,11.3167027 28.7639226,10.9395529 29.6537778,10.4220595 C29.3104206,11.4800461 28.5817566,12.3678045 27.6311282,12.928952 C28.5584,12.8208382 29.4482552,12.5747262 30.2727273,12.2159611 C29.6561595,13.1221042 28.8737139,13.9202092 27.9745622,14.5549708 Z" id="Shape"></path>
            </g>
        </g>
    </g>
</svg>